<?xml version="1.0" encoding="utf-8"?>
<!-- Generator: Adobe Illustrator 16.0.0, SVG Export Plug-In . SVG Version: 6.00 Build 0)  -->
<!DOCTYPE svg PUBLIC "-//W3C//DTD SVG 1.1//EN" "http://www.w3.org/Graphics/SVG/1.1/DTD/svg11.dtd">
<svg version="1.1" id="Layer_1" xmlns="http://www.w3.org/2000/svg" xmlns:xlink="http://www.w3.org/1999/xlink" x="0px" y="0px"
	 width="46.497px" height="58.497px" viewBox="0 0 46.497 58.497" enable-background="new 0 0 46.497 58.497" xml:space="preserve">
<path d="M43.846,3.14c-1.001,0.058-2.002,0.198-2.997,0.403c-0.045-0.052-0.104-0.096-0.177-0.123
	c-7.474-2.757-15.488-0.298-21.167,4.96c-2.854,2.643-5.165,5.781-7.37,8.964c-1.319,1.904-2.794,4.032-5.147,4.694
	c-2.279,0.639-4.931-0.783-4.705-3.257c0.993-0.98,2.827-0.685,3.052,0.903c0.051,0.366,0.668,0.3,0.648-0.072
	c-0.074-1.292-1.132-2.312-2.453-2.318c-1.464-0.004-2.515,1.291-2.754,2.637c-0.083,0.463-0.084,0.899-0.024,1.31
	c-0.088,0.047-0.154,0.142-0.135,0.255c0.519,3.182,3.465,5.588,6.334,6.676c1.31,0.497,2.684,0.762,4.076,0.852
	c0.054,0.098,0.193,0.158,0.287,0.056c0.011-0.009,0.021-0.022,0.031-0.034c2.451,0.112,4.953-0.305,7.27-0.977
	c2.594-0.754,5.069-1.896,7.353-3.348c0.098,0.063,0.243,0.047,0.298-0.101c0.013-0.04,0.024-0.08,0.039-0.119
	c1.989-1.307,3.822-2.852,5.446-4.592c0.102,0.034,0.221,0,0.255-0.139c0.015-0.06,0.023-0.118,0.039-0.179
	c1.029-1.133,1.969-2.349,2.801-3.633c1.061-1.629,1.926-3.363,2.642-5.168c0.925-2.324,1.727-4.718,3.654-6.42
	c0.037-0.034,0.063-0.068,0.084-0.104c0.879-0.226,1.768-0.437,2.671-0.636C44.167,3.571,44.13,3.125,43.846,3.14 M30.825,3.439
	c0.028,0.017,0.058,0.034,0.093,0.042c1.546,0.341,2.933,0.985,4.148,1.966c-1.042,0.462-2.055,0.97-3.021,1.512
	c-0.117,0.065-0.232,0.13-0.346,0.197c0.064-0.064,0.091-0.176,0.016-0.254c-1.14-1.169-2.926-2.213-4.674-2.419
	C28.276,3.994,29.543,3.649,30.825,3.439 M25.906,4.983c0.89,0.165,1.782,0.211,2.651,0.522C29.645,5.892,30.58,6.48,31.49,7.18
	c0.038,0.029,0.082,0.036,0.119,0.029c-0.643,0.374-1.265,0.771-1.868,1.187c0.008-0.078-0.015-0.156-0.086-0.218
	c-1.584-1.331-3.507-2.159-5.544-2.23C24.689,5.597,25.291,5.277,25.906,4.983 M23.152,6.571c2.271,0.004,4.313,0.605,6.112,2.078
	c0.019,0.018,0.042,0.027,0.062,0.037c-0.67,0.478-1.32,0.978-1.95,1.5c-0.009-0.01-0.01-0.023-0.021-0.033
	c-1.723-1.666-4.032-2.276-6.345-1.949C21.696,7.62,22.41,7.074,23.152,6.571 M24.734,12.412c-1.795-1.181-3.826-1.865-5.949-2.125
	c0.502-0.519,1.021-1.018,1.554-1.502c0.052,0.032,0.115,0.049,0.19,0.034c2.365-0.474,4.59,0.24,6.453,1.702
	c-0.743,0.634-1.466,1.293-2.171,1.976C24.794,12.467,24.773,12.438,24.734,12.412 M18.287,10.814c0.004,0,0.008,0.002,0.013,0.004
	c2.22,0.26,4.224,0.937,6.202,1.972c0.002,0.002,0.006,0,0.01,0.002c-0.288,0.286-0.579,0.575-0.863,0.868
	c0.031-0.09,0.012-0.198-0.096-0.267c-1.828-1.167-3.899-1.711-6.048-1.713C17.762,11.388,18.024,11.1,18.287,10.814 M15.669,13.913
	c0.441-0.569,0.896-1.132,1.363-1.685c0.033,0.01,0.066,0.022,0.109,0.019c2.205-0.029,4.213,0.523,6.153,1.56
	c0.069,0.036,0.137,0.038,0.194,0.02c-0.643,0.665-1.272,1.343-1.897,2.034c-0.105,0.116-0.209,0.231-0.314,0.349
	c-1.639-1.311-3.892-2.108-5.991-1.781C15.413,14.251,15.538,14.077,15.669,13.913 M15.064,14.732
	c0.031,0.066,0.094,0.121,0.179,0.127c2.151,0.174,3.888,0.564,5.714,1.703c-0.741,0.821-1.506,1.661-2.302,2.478
	c-1.365-1.194-3.248-2.104-5.106-2.059C14.065,16.207,14.561,15.443,15.064,14.732 M16.13,21.31
	c-1.38-0.979-2.984-1.428-4.647-1.506c0.611-0.724,1.175-1.512,1.716-2.308c1.911,0.298,3.502,0.717,5.069,1.94
	c-0.67,0.669-1.361,1.323-2.083,1.927C16.169,21.346,16.153,21.327,16.13,21.31 M10.321,21.022c0.238-0.219,0.467-0.449,0.691-0.691
	c1.714,0.07,3.242,0.597,4.745,1.392c-0.303,0.243-0.609,0.475-0.922,0.697C13.499,21.511,11.934,21.085,10.321,21.022 M9.99,21.314
	c0.015,0.112,0.092,0.217,0.239,0.221c1.543,0.024,2.913,0.438,4.257,1.125c-1.373,0.928-2.855,1.659-4.489,2.038
	c-0.644,0.15-1.325,0.236-2.009,0.247c0.062-0.032,0.108-0.087,0.114-0.176C8.16,24.005,7.847,23.3,7.3,22.825
	C8.309,22.521,9.193,21.988,9.99,21.314 M2.696,22.969c-0.766-0.818-1.262-1.951-1.026-3.029c0.107,0.739,0.487,1.448,1.075,2.017
	c0.23,0.222,0.48,0.409,0.745,0.561c0.143,0.222,0.315,0.435,0.438,0.668c0.155,0.303,0.262,0.621,0.324,0.952
	C3.678,23.841,3.149,23.452,2.696,22.969 M4.661,24.33c0.002-0.006,0.004-0.01,0.002-0.017c-0.027-0.43-0.133-0.975-0.355-1.439
	c0.751,0.231,1.565,0.253,2.352,0.107c0.62,0.363,1.013,1.056,1.007,1.779c-0.002,0.092,0.045,0.153,0.107,0.185
	C6.703,24.938,5.629,24.747,4.661,24.33 M2.75,24.208c0.672,0.481,1.456,0.857,2.264,1.125c-0.035,0.019-0.07,0.039-0.105,0.054
	C4.688,25.501,4.47,25.628,4.25,25.75C3.687,25.288,3.19,24.771,2.75,24.208 M5.45,26.597c-0.275-0.163-0.538-0.338-0.785-0.521
	c0.147-0.08,0.287-0.166,0.408-0.227c0.203-0.104,0.429-0.2,0.643-0.312c0.847,0.217,1.689,0.315,2.436,0.293
	c0.47-0.015,0.933-0.068,1.386-0.145c-0.168,0.368-0.315,0.747-0.57,1.081c-0.281,0.371-0.64,0.672-1.036,0.912
	C7.07,27.42,6.234,27.065,5.45,26.597 M8.545,27.851c0.81-0.512,1.499-1.354,1.523-2.269c1.023-0.225,2.002-0.594,2.935-1.065
	c-0.47,1.311-0.902,2.546-1.598,3.732C10.439,28.208,9.478,28.083,8.545,27.851 M12.656,28.259
	c-0.219,0.008-0.443,0.008-0.662,0.008c0.811-1.103,1.382-2.427,1.372-3.789c0-0.051-0.022-0.09-0.054-0.119
	c1.318-0.702,2.547-1.605,3.687-2.589c0.232,2.176-0.125,4.225-1.181,6.146C14.772,28.106,13.714,28.228,12.656,28.259 M18.2,27.347
	c-0.54,0.155-1.085,0.302-1.635,0.419c1.118-1.95,1.501-4.248,0.958-6.462c0.533-0.483,1.048-0.981,1.54-1.483
	c0.07-0.074,0.142-0.147,0.212-0.221c0.562,2.64,0.195,5.189-1.059,7.622C18.193,27.268,18.192,27.312,18.2,27.347 M25.442,24.054
	c-0.675,0.428-1.372,0.827-2.087,1.203c0.79-2.73,0.362-5.636-1.125-8.099c-0.195-0.322-0.697-0.055-0.517,0.279
	c1.364,2.52,1.696,5.351,1.073,8.113c-1.348,0.667-2.751,1.238-4.196,1.682c1.626-2.352,2.045-5.406,1.157-8.124
	c1.815-1.912,3.518-3.924,5.355-5.806c-0.003,0.022-0.003,0.046,0.004,0.069c0.448,1.859,1.137,3.556,1.273,5.495
	c0.117,1.618-0.032,3.207-0.324,4.786C25.854,23.789,25.647,23.923,25.442,24.054 M26.686,23.218
	c0.79-3.236,0.636-7.32-1.147-10.011c-0.056-0.086-0.146-0.119-0.232-0.11c0.376-0.384,0.765-0.761,1.153-1.131
	c-0.012,0.052-0.01,0.107,0.017,0.159c0.88,1.625,1.602,3.251,1.91,5.086c0.278,1.666,0.012,3.166-0.098,4.779
	C27.768,22.419,27.234,22.827,26.686,23.218 M33.875,15.86c-0.489,0.723-1.014,1.422-1.564,2.098
	c0.276-3.013-0.598-6.014-2.452-8.469c-0.216-0.284-0.605,0.095-0.402,0.376c1.865,2.559,2.641,5.658,2.29,8.763
	c-0.853,0.979-1.769,1.901-2.742,2.755c0.813-3.107-0.356-7.184-2.157-9.524c-0.053-0.069-0.127-0.084-0.199-0.069
	c0.92-0.853,1.88-1.661,2.91-2.399c0.839-0.6,1.693-1.138,2.566-1.627C33.045,10.43,33.627,13.061,33.875,15.86 M34.267,15.259
	c0.039-2.667-0.5-5.382-1.565-7.811c0.648-0.347,1.31-0.663,1.977-0.958c1.056,1.499,1.488,3.096,1.631,4.859
	c-0.541,1.251-1.137,2.47-1.87,3.641C34.386,15.083,34.323,15.169,34.267,15.259 M37.24,9.092c-0.138,0.349-0.279,0.695-0.42,1.04
	c-0.136-1.403-0.688-2.78-1.479-3.93c1.417-0.592,2.873-1.089,4.361-1.517C38.577,5.947,37.876,7.497,37.24,9.092 M35.482,5.262
	c-0.883-0.901-1.925-1.585-3.094-2.01c2.309-0.18,4.652,0.054,6.938,0.655C38.017,4.264,36.731,4.727,35.482,5.262"/>
<path d="M44.563,2.906c-0.929,0.829-1.798,1.736-2.606,2.702c-0.084-0.016-0.174-0.012-0.273,0.02
	c-9.402,3.076-15.316,11.654-16.789,21.158c-0.741,4.772-0.573,9.616-0.263,14.415c0.184,2.871,0.386,6.084-1.396,8.545
	c-1.727,2.381-5.403,3.037-7.093,0.457c0.209-1.721,2.226-2.848,3.669-1.477c0.331,0.318,0.884-0.225,0.574-0.568
	c-1.065-1.201-2.885-1.383-4.177-0.367c-1.427,1.125-1.45,3.197-0.648,4.695c0.277,0.514,0.611,0.939,0.987,1.293
	c-0.047,0.113-0.041,0.258,0.063,0.355c2.961,2.697,7.689,2.768,11.321,1.615c1.66-0.525,3.202-1.33,4.63-2.313
	c0.128,0.053,0.308,0.004,0.322-0.166c0.003-0.021,0.003-0.043,0.005-0.061c2.476-1.779,4.588-4.115,6.325-6.557
	c1.949-2.738,3.479-5.76,4.582-8.938c0.142-0.008,0.275-0.141,0.212-0.324c-0.015-0.051-0.035-0.102-0.055-0.148
	c0.934-2.805,1.527-5.727,1.765-8.676c0.126-0.043,0.213-0.169,0.139-0.331c-0.027-0.067-0.065-0.135-0.098-0.202
	c0.125-1.901,0.104-3.807-0.074-5.701c-0.223-2.405-0.717-4.763-1.412-7.073c-0.896-2.978-1.959-5.929-1.395-9.077
	c0.01-0.059,0.01-0.111,0.001-0.162c0.685-0.901,1.39-1.791,2.115-2.682C45.211,3.079,44.83,2.671,44.563,2.906 M32.111,13.241
	c0.041-0.004,0.08-0.012,0.121-0.032c1.769-0.859,3.614-1.3,5.558-1.281c-0.658,1.25-1.251,2.525-1.775,3.801
	c-0.066,0.151-0.126,0.304-0.186,0.459c0.014-0.116-0.045-0.244-0.178-0.26c-2.015-0.26-4.559,0.098-6.42,1.248
	C30.056,15.745,31.025,14.434,32.111,13.241 M28.508,18.541c0.994-0.527,1.9-1.17,2.988-1.539c1.357-0.46,2.721-0.607,4.145-0.63
	c0.061-0.002,0.108-0.027,0.143-0.064c-0.34,0.86-0.64,1.727-0.906,2.597c-0.053-0.082-0.136-0.139-0.254-0.144
	c-2.566-0.075-5.081,0.601-7.118,2.103C27.798,20.073,28.138,19.3,28.508,18.541 M27.051,22.209c2.216-1.75,4.668-2.737,7.561-2.69
	c0.03,0,0.057-0.004,0.086-0.011c-0.285,0.982-0.531,1.97-0.742,2.965c-0.017-0.005-0.029-0.014-0.048-0.015
	c-2.963-0.292-5.683,0.893-7.684,2.997C26.441,24.357,26.716,23.275,27.051,22.209 M33.1,26.68c-2.661,0.234-5.168,1.137-7.435,2.52
	c0.09-0.893,0.208-1.781,0.356-2.665c0.072-0.01,0.146-0.04,0.209-0.111c1.938-2.285,4.656-3.311,7.602-3.321
	c-0.238,1.191-0.432,2.391-0.593,3.599C33.2,26.686,33.154,26.674,33.1,26.68 M25.587,30.096c0.005-0.002,0.009-0.002,0.014-0.006
	c2.365-1.46,4.838-2.346,7.561-2.863c0.004,0,0.008-0.001,0.013-0.004c-0.06,0.502-0.117,1.006-0.17,1.511
	c-0.04-0.114-0.14-0.202-0.303-0.187c-2.679,0.275-5.116,1.339-7.211,2.997C25.517,31.062,25.546,30.581,25.587,30.096
	 M25.424,35.137c-0.009-0.898,0.003-1.797,0.028-2.697c0.042-0.016,0.082-0.031,0.121-0.063c2.127-1.732,4.506-2.742,7.196-3.229
	c0.096-0.016,0.162-0.064,0.205-0.13c-0.11,1.142-0.2,2.292-0.278,3.447c-0.013,0.191-0.027,0.387-0.04,0.58
	c-2.604-0.014-5.414,0.947-7.208,2.887C25.437,35.661,25.427,35.395,25.424,35.137 M25.467,36.401
	c0.083,0.039,0.185,0.043,0.271-0.016c2.232-1.488,4.228-2.447,6.882-2.75c-0.088,1.373-0.186,2.779-0.33,4.191
	c-2.253-0.113-4.788,0.455-6.566,1.932C25.632,38.61,25.526,37.479,25.467,36.401 M31.58,41.985
	c-2.098,0.109-4.009,0.912-5.69,2.119c0.039-1.18-0.019-2.381-0.104-3.574c2.091-1.186,3.961-2,6.432-2.02
	c-0.132,1.17-0.304,2.338-0.543,3.486C31.646,41.991,31.614,41.981,31.58,41.985 M25.701,46.186
	c0.063-0.393,0.104-0.797,0.138-1.205c1.724-1.26,3.617-1.92,5.697-2.307c-0.109,0.469-0.229,0.936-0.361,1.391
	C29.171,44.213,27.319,45,25.701,46.186 M25.603,46.725c0.103,0.098,0.256,0.141,0.4,0.031c1.524-1.168,3.18-1.82,5.017-2.191
	c-0.623,1.967-1.502,3.824-2.799,5.451c-0.513,0.645-1.111,1.254-1.77,1.793c0.035-0.078,0.039-0.17-0.024-0.262
	c-0.532-0.787-1.38-1.236-2.277-1.277C24.897,49.202,25.347,47.999,25.603,46.725 M19.77,53.963
	c-1.372-0.205-2.729-0.93-3.332-2.158c0.677,0.637,1.59,1.031,2.604,1.135c0.391,0.043,0.781,0.027,1.154-0.025
	c0.315,0.104,0.644,0.178,0.944,0.311c0.387,0.172,0.734,0.4,1.052,0.676C21.403,54.055,20.586,54.086,19.77,53.963 M22.737,53.774
	c-0.005-0.006-0.005-0.014-0.012-0.02c-0.359-0.395-0.884-0.844-1.457-1.125c0.91-0.355,1.721-0.967,2.375-1.713
	c0.883-0.121,1.805,0.252,2.353,0.957c0.07,0.094,0.161,0.115,0.246,0.1C25.193,52.79,24,53.434,22.737,53.774 M20.784,55.129
	c1.023-0.051,2.077-0.287,3.071-0.648c-0.021,0.045-0.041,0.09-0.06,0.135c-0.13,0.277-0.243,0.572-0.362,0.859
	C22.526,55.459,21.644,55.336,20.784,55.129 M25.256,55.374c-0.396,0.053-0.785,0.086-1.168,0.098
	c0.081-0.189,0.151-0.381,0.223-0.535c0.119-0.256,0.263-0.523,0.385-0.797c0.993-0.441,1.892-1,2.6-1.596
	c0.446-0.379,0.854-0.783,1.237-1.209c0.122,0.49,0.27,0.971,0.28,1.492c0.015,0.578-0.108,1.148-0.305,1.689
	C27.468,54.928,26.38,55.225,25.256,55.374 M29.236,54.208c0.393-1.123,0.416-2.477-0.267-3.383
	c0.824-1.008,1.491-2.125,2.038-3.305c0.557,1.643,1.085,3.178,1.325,4.871C31.36,53.094,30.325,53.713,29.236,54.208
	 M33.558,51.434c-0.212,0.176-0.426,0.35-0.643,0.518c-0.058-1.697-0.525-3.428-1.583-4.744c-0.04-0.055-0.093-0.078-0.145-0.078
	c0.744-1.701,1.243-3.527,1.595-5.369c1.904,1.943,3.137,4.217,3.59,6.9C35.498,49.657,34.562,50.584,33.558,51.434 M38.253,46.27
	c-0.405,0.568-0.824,1.133-1.267,1.67c-0.419-2.764-1.814-5.293-4.055-7.037c0.146-0.881,0.267-1.762,0.356-2.629
	c0.015-0.127,0.026-0.254,0.038-0.379c2.581,2.135,4.191,4.902,4.844,8.246C38.186,46.198,38.214,46.243,38.253,46.27 M42.77,37.475
	c-0.329,0.936-0.7,1.865-1.108,2.781c-1.334-3.266-3.99-5.77-7.342-7.02c-0.436-0.164-0.721,0.48-0.286,0.67
	c3.271,1.398,5.778,3.902,7.302,7.074c-0.798,1.689-1.724,3.33-2.788,4.873c-0.232-3.545-2.18-6.84-5.139-8.803
	c0.29-3.266,0.396-6.54,0.733-9.786c0.017,0.024,0.035,0.044,0.06,0.066c1.871,1.461,3.85,2.583,5.481,4.369
	c1.357,1.484,2.439,3.15,3.374,4.914C42.964,36.903,42.87,37.19,42.77,37.475 M43.335,35.704c-1.727-3.762-5.028-7.621-8.841-8.871
	c-0.12-0.041-0.234,0-0.311,0.073c0.072-0.665,0.157-1.327,0.254-1.991c0.024,0.058,0.067,0.11,0.136,0.142
	c2.111,0.905,4.067,1.932,5.783,3.481c1.558,1.404,2.455,3.077,3.593,4.729C43.773,34.086,43.568,34.897,43.335,35.704
	 M44.664,22.989c0.079,1.08,0.11,2.167,0.095,3.252c-2.057-3.15-5.222-5.402-8.924-6.361c-0.428-0.111-0.517,0.561-0.102,0.677
	c3.792,1.054,6.938,3.475,8.99,6.77c-0.077,1.611-0.254,3.215-0.543,4.799c-1.608-3.654-5.891-6.725-9.45-7.616
	c-0.107-0.025-0.19,0.018-0.248,0.084c0.235-1.535,0.545-3.063,0.982-4.577c0.354-1.233,0.772-2.418,1.247-3.566
	C39.667,18.338,42.263,20.454,44.664,22.989 M44.583,22.1c-2.021-2.627-4.64-4.855-7.554-6.4c0.364-0.84,0.765-1.657,1.188-2.458
	c2.186,0.646,3.838,1.868,5.34,3.477c0.435,1.637,0.793,3.284,0.985,4.987C44.557,21.837,44.567,21.97,44.583,22.1 M42.72,13.799
	c0.136,0.447,0.265,0.893,0.394,1.337c-1.214-1.262-2.815-2.179-4.473-2.687c0.923-1.67,1.959-3.276,3.079-4.842
	C41.598,9.704,42.109,11.756,42.72,13.799 M38.055,11.423c-1.556-0.194-3.097-0.058-4.564,0.431
	c2.109-1.961,4.574-3.536,7.264-4.714C39.755,8.496,38.855,9.94,38.055,11.423"/>
</svg>
