<?xml version="1.0" encoding="utf-8"?>
<!-- Generator: Adobe Illustrator 16.0.0, SVG Export Plug-In . SVG Version: 6.00 Build 0)  -->
<!DOCTYPE svg PUBLIC "-//W3C//DTD SVG 1.1//EN" "http://www.w3.org/Graphics/SVG/1.1/DTD/svg11.dtd">
<svg version="1.1" id="Layer_1" xmlns="http://www.w3.org/2000/svg" xmlns:xlink="http://www.w3.org/1999/xlink" x="0px" y="0px"
	 width="127.5px" height="88px" viewBox="0 0 127.5 88" enable-background="new 0 0 127.5 88" xml:space="preserve">
<g>
	<defs>
		<rect id="SVGID_1_" x="-62.5" y="-26.232" width="255.118" height="141.732"/>
	</defs>
	<clipPath id="SVGID_2_">
		<use xlink:href="#SVGID_1_"  overflow="visible"/>
	</clipPath>
	<path clip-path="url(#SVGID_2_)" fill="#006600" d="M124.529,22.559c-0.477,0.027-0.953,0.094-1.427,0.191
		c-0.021-0.024-0.05-0.045-0.085-0.058c-3.559-1.313-7.375-0.142-10.079,2.362c-1.359,1.258-2.46,2.753-3.51,4.269
		c-0.628,0.906-1.33,1.92-2.451,2.235c-1.085,0.304-2.348-0.373-2.24-1.551c0.473-0.467,1.346-0.326,1.453,0.43
		c0.024,0.174,0.318,0.143,0.309-0.034c-0.035-0.615-0.539-1.101-1.168-1.104c-0.697-0.002-1.197,0.615-1.312,1.256
		c-0.039,0.22-0.04,0.428-0.012,0.623c-0.042,0.023-0.073,0.068-0.064,0.122c0.247,1.515,1.65,2.661,3.017,3.179
		c0.624,0.237,1.278,0.363,1.941,0.406c0.025,0.047,0.092,0.075,0.137,0.027c0.005-0.005,0.01-0.011,0.015-0.017
		c1.167,0.054,2.358-0.145,3.462-0.465c1.235-0.359,2.414-0.903,3.502-1.594c0.046,0.03,0.115,0.022,0.142-0.048
		c0.006-0.019,0.012-0.038,0.019-0.057c0.947-0.622,1.82-1.358,2.594-2.187c0.048,0.016,0.104,0,0.121-0.066
		c0.007-0.028,0.012-0.056,0.019-0.085c0.49-0.54,0.938-1.119,1.334-1.73c0.505-0.776,0.917-1.602,1.258-2.461
		c0.44-1.107,0.822-2.247,1.74-3.058c0.018-0.016,0.03-0.032,0.04-0.049c0.418-0.108,0.842-0.208,1.271-0.303
		C124.683,22.764,124.665,22.551,124.529,22.559 M118.329,22.701c0.013,0.008,0.027,0.016,0.044,0.02
		c0.736,0.162,1.396,0.469,1.976,0.936c-0.496,0.22-0.979,0.462-1.438,0.72c-0.056,0.031-0.11,0.062-0.165,0.094
		c0.031-0.031,0.044-0.084,0.008-0.121c-0.543-0.557-1.393-1.054-2.226-1.152C117.115,22.965,117.719,22.801,118.329,22.701
		 M115.986,23.437c0.424,0.079,0.849,0.101,1.263,0.249c0.518,0.184,0.963,0.464,1.396,0.797c0.019,0.014,0.039,0.017,0.057,0.014
		c-0.306,0.178-0.602,0.367-0.89,0.565c0.004-0.037-0.007-0.074-0.041-0.104c-0.754-0.633-1.67-1.028-2.64-1.062
		C115.407,23.729,115.693,23.576,115.986,23.437 M114.675,24.192c1.082,0.002,2.054,0.288,2.911,0.99
		c0.009,0.008,0.02,0.013,0.029,0.017c-0.319,0.228-0.629,0.466-0.929,0.715c-0.004-0.005-0.005-0.011-0.011-0.016
		c-0.82-0.793-1.92-1.084-3.021-0.928C113.981,24.692,114.321,24.432,114.675,24.192 M115.429,26.974
		c-0.855-0.562-1.822-0.888-2.833-1.012c0.239-0.247,0.486-0.485,0.74-0.715c0.024,0.015,0.055,0.023,0.09,0.016
		c1.126-0.226,2.187,0.114,3.073,0.81c-0.354,0.302-0.698,0.616-1.034,0.941C115.457,27,115.447,26.986,115.429,26.974
		 M112.358,26.213c0.002,0,0.004,0.001,0.006,0.002c1.058,0.124,2.012,0.446,2.953,0.939c0.001,0.001,0.003,0,0.005,0.001
		c-0.138,0.136-0.275,0.274-0.411,0.413c0.015-0.043,0.006-0.094-0.046-0.127c-0.87-0.556-1.856-0.815-2.88-0.816
		C112.108,26.486,112.232,26.349,112.358,26.213 M111.111,27.688c0.21-0.271,0.427-0.539,0.649-0.802
		c0.016,0.005,0.031,0.01,0.052,0.009c1.05-0.014,2.006,0.249,2.93,0.743c0.033,0.017,0.065,0.018,0.093,0.009
		c-0.306,0.317-0.605,0.64-0.903,0.969c-0.05,0.055-0.1,0.11-0.149,0.166c-0.781-0.624-1.854-1.004-2.854-0.848
		C110.989,27.85,111.049,27.767,111.111,27.688 M110.823,28.079c0.015,0.031,0.045,0.057,0.085,0.06
		c1.024,0.083,1.852,0.269,2.721,0.811c-0.353,0.391-0.717,0.791-1.096,1.18c-0.65-0.569-1.547-1.002-2.432-0.981
		C110.348,28.781,110.584,28.417,110.823,28.079 M111.331,31.211c-0.657-0.466-1.421-0.68-2.213-0.717
		c0.291-0.345,0.56-0.72,0.817-1.099c0.91,0.142,1.668,0.341,2.414,0.924c-0.319,0.319-0.648,0.63-0.992,0.918
		C111.35,31.229,111.342,31.219,111.331,31.211 M108.564,31.074c0.113-0.104,0.223-0.214,0.329-0.329
		c0.816,0.033,1.544,0.284,2.26,0.663c-0.145,0.115-0.29,0.226-0.439,0.332C110.078,31.307,109.333,31.104,108.564,31.074
		 M108.407,31.213c0.007,0.054,0.044,0.103,0.113,0.105c0.735,0.012,1.388,0.209,2.027,0.536c-0.653,0.442-1.359,0.79-2.138,0.971
		c-0.307,0.071-0.631,0.112-0.957,0.117c0.029-0.015,0.052-0.042,0.055-0.084c0.027-0.363-0.121-0.699-0.382-0.925
		C107.606,31.788,108.027,31.534,108.407,31.213 M104.934,32.001c-0.364-0.389-0.601-0.929-0.488-1.442
		c0.051,0.352,0.231,0.689,0.512,0.96c0.109,0.106,0.229,0.195,0.354,0.267c0.068,0.106,0.15,0.207,0.209,0.318
		c0.074,0.144,0.125,0.296,0.154,0.453C105.401,32.417,105.149,32.231,104.934,32.001 M105.869,32.649
		c0.001-0.003,0.002-0.005,0.001-0.008c-0.013-0.205-0.063-0.464-0.169-0.685c0.357,0.11,0.745,0.12,1.12,0.051
		c0.295,0.173,0.482,0.503,0.479,0.847c-0.001,0.044,0.021,0.073,0.051,0.088C106.842,32.939,106.33,32.848,105.869,32.649
		 M104.959,32.591c0.32,0.229,0.693,0.408,1.078,0.536c-0.017,0.009-0.033,0.018-0.05,0.026c-0.105,0.054-0.209,0.115-0.313,0.173
		C105.405,33.105,105.169,32.859,104.959,32.591 M106.245,33.729c-0.131-0.078-0.256-0.161-0.374-0.248
		c0.07-0.038,0.137-0.079,0.194-0.108c0.097-0.049,0.204-0.095,0.306-0.148c0.403,0.103,0.805,0.15,1.16,0.139
		c0.224-0.007,0.444-0.032,0.66-0.069c-0.08,0.176-0.15,0.356-0.271,0.515c-0.134,0.177-0.305,0.32-0.493,0.435
		C107.017,34.121,106.618,33.952,106.245,33.729 M107.719,34.326c0.386-0.244,0.714-0.645,0.726-1.08
		c0.487-0.107,0.953-0.283,1.397-0.507c-0.224,0.624-0.43,1.212-0.761,1.777C108.621,34.496,108.163,34.437,107.719,34.326
		 M109.677,34.521c-0.104,0.004-0.211,0.004-0.315,0.004c0.386-0.525,0.658-1.155,0.653-1.804c0-0.025-0.011-0.043-0.025-0.057
		c0.628-0.334,1.213-0.764,1.756-1.233c0.11,1.036-0.06,2.012-0.563,2.927C110.685,34.448,110.181,34.505,109.677,34.521
		 M112.316,34.086c-0.257,0.074-0.517,0.144-0.778,0.2c0.532-0.929,0.715-2.023,0.456-3.078c0.254-0.23,0.499-0.467,0.733-0.706
		c0.033-0.035,0.067-0.07,0.101-0.105c0.268,1.257,0.093,2.471-0.504,3.63C112.313,34.048,112.313,34.069,112.316,34.086
		 M115.766,32.518c-0.321,0.204-0.653,0.394-0.994,0.573c0.376-1.3,0.173-2.684-0.535-3.857c-0.093-0.153-0.332-0.026-0.246,0.133
		c0.649,1.2,0.808,2.548,0.511,3.863c-0.642,0.318-1.311,0.59-1.998,0.801c0.774-1.12,0.974-2.574,0.551-3.868
		c0.864-0.911,1.676-1.869,2.55-2.765c-0.001,0.011-0.001,0.022,0.002,0.033c0.214,0.885,0.542,1.693,0.606,2.617
		c0.056,0.77-0.016,1.527-0.154,2.279C115.961,32.392,115.863,32.456,115.766,32.518 M116.357,32.12
		c0.376-1.541,0.303-3.486-0.546-4.768c-0.027-0.041-0.07-0.056-0.111-0.052c0.18-0.183,0.364-0.363,0.55-0.539
		c-0.006,0.025-0.005,0.051,0.008,0.076c0.419,0.774,0.763,1.548,0.909,2.422c0.133,0.793,0.006,1.508-0.046,2.276
		C116.873,31.739,116.619,31.934,116.357,32.12 M119.781,28.616c-0.233,0.344-0.482,0.677-0.745,0.999
		c0.132-1.435-0.284-2.864-1.168-4.033c-0.103-0.135-0.288,0.045-0.191,0.179c0.889,1.218,1.258,2.695,1.091,4.173
		c-0.406,0.466-0.842,0.905-1.306,1.312c0.387-1.48-0.17-3.421-1.027-4.536c-0.025-0.033-0.061-0.04-0.095-0.033
		c0.438-0.406,0.895-0.791,1.386-1.142c0.399-0.286,0.807-0.542,1.222-0.775C119.386,26.03,119.663,27.283,119.781,28.616
		 M119.968,28.33c0.019-1.27-0.238-2.563-0.745-3.72c0.309-0.165,0.623-0.316,0.94-0.456c0.503,0.714,0.709,1.474,0.777,2.314
		c-0.258,0.595-0.542,1.176-0.891,1.734C120.024,28.246,119.995,28.287,119.968,28.33 M121.384,25.393
		c-0.065,0.166-0.133,0.331-0.2,0.495c-0.064-0.668-0.327-1.324-0.704-1.871c0.675-0.282,1.368-0.519,2.077-0.723
		C122.021,23.896,121.687,24.633,121.384,25.393 M120.547,23.569c-0.421-0.429-0.917-0.755-1.474-0.957
		c1.1-0.086,2.216,0.026,3.304,0.312C121.754,23.094,121.142,23.314,120.547,23.569"/>
	<path clip-path="url(#SVGID_2_)" fill="#006600" d="M124.871,22.447c-0.442,0.395-0.855,0.827-1.241,1.287
		c-0.04-0.008-0.083-0.006-0.13,0.009c-4.478,1.465-7.294,5.55-7.995,10.076c-0.354,2.273-0.273,4.579-0.125,6.865
		c0.087,1.367,0.184,2.897-0.665,4.069c-0.822,1.133-2.573,1.447-3.378,0.217c0.1-0.819,1.06-1.356,1.747-0.703
		c0.157,0.151,0.421-0.106,0.273-0.271c-0.508-0.572-1.374-0.657-1.989-0.174c-0.68,0.536-0.69,1.522-0.309,2.235
		c0.132,0.245,0.291,0.448,0.47,0.616c-0.022,0.054-0.02,0.123,0.03,0.169c1.41,1.285,3.662,1.318,5.392,0.77
		c0.79-0.251,1.524-0.633,2.204-1.102c0.062,0.025,0.147,0.002,0.154-0.079c0.001-0.01,0.001-0.02,0.002-0.028
		c1.179-0.848,2.185-1.96,3.012-3.123c0.929-1.304,1.657-2.743,2.183-4.255c0.067-0.005,0.131-0.068,0.101-0.156
		c-0.007-0.023-0.017-0.047-0.025-0.07c0.444-1.336,0.727-2.727,0.84-4.131c0.06-0.021,0.102-0.081,0.066-0.158
		c-0.014-0.032-0.031-0.064-0.047-0.096c0.06-0.905,0.05-1.813-0.035-2.715c-0.106-1.145-0.342-2.268-0.673-3.368
		c-0.426-1.418-0.933-2.823-0.664-4.322c0.005-0.028,0.005-0.053,0.001-0.077c0.325-0.429,0.661-0.853,1.007-1.277
		C125.18,22.529,124.998,22.335,124.871,22.447 M118.941,27.369c0.02-0.002,0.038-0.005,0.058-0.015
		c0.843-0.409,1.722-0.619,2.646-0.61c-0.313,0.596-0.596,1.203-0.846,1.81c-0.031,0.072-0.06,0.145-0.088,0.219
		c0.007-0.055-0.021-0.116-0.085-0.124c-0.959-0.124-2.171,0.047-3.058,0.594C117.963,28.562,118.424,27.937,118.941,27.369
		 M117.226,29.893c0.474-0.251,0.905-0.557,1.423-0.733c0.646-0.219,1.296-0.289,1.974-0.3c0.029-0.001,0.052-0.013,0.067-0.031
		c-0.161,0.41-0.304,0.823-0.432,1.237c-0.024-0.039-0.064-0.066-0.12-0.068c-1.223-0.036-2.42,0.286-3.39,1.001
		C116.888,30.623,117.049,30.254,117.226,29.893 M116.531,31.64c1.056-0.833,2.223-1.303,3.601-1.281
		c0.015,0,0.027-0.002,0.041-0.005c-0.136,0.468-0.253,0.938-0.354,1.412c-0.008-0.002-0.014-0.006-0.022-0.007
		c-1.411-0.14-2.706,0.425-3.659,1.427C116.241,32.663,116.372,32.147,116.531,31.64 M119.412,33.769
		c-1.268,0.112-2.461,0.541-3.541,1.2c0.043-0.425,0.1-0.848,0.17-1.269c0.035-0.004,0.07-0.019,0.1-0.053
		c0.923-1.088,2.218-1.576,3.62-1.581c-0.113,0.567-0.206,1.138-0.282,1.714C119.46,33.771,119.438,33.766,119.412,33.769
		 M115.834,35.396c0.003-0.001,0.005-0.001,0.007-0.003c1.126-0.695,2.304-1.117,3.601-1.363c0.002,0,0.004-0.001,0.006-0.002
		c-0.028,0.239-0.056,0.479-0.081,0.719c-0.019-0.054-0.066-0.096-0.144-0.089c-1.276,0.131-2.437,0.638-3.435,1.427
		C115.801,35.855,115.815,35.625,115.834,35.396 M115.757,37.795c-0.005-0.427,0.001-0.855,0.014-1.284
		c0.02-0.006,0.039-0.015,0.058-0.03c1.013-0.824,2.146-1.305,3.427-1.537c0.046-0.008,0.077-0.031,0.098-0.062
		c-0.053,0.544-0.096,1.091-0.133,1.641c-0.006,0.091-0.013,0.184-0.019,0.276c-1.24-0.006-2.578,0.452-3.433,1.375
		C115.763,38.046,115.758,37.918,115.757,37.795 M115.777,38.397c0.04,0.019,0.088,0.021,0.129-0.007
		c1.063-0.709,2.013-1.166,3.277-1.309c-0.042,0.653-0.089,1.323-0.157,1.995c-1.073-0.053-2.28,0.217-3.127,0.92
		C115.855,39.45,115.806,38.912,115.777,38.397 M118.688,41.057c-0.999,0.053-1.909,0.434-2.71,1.009
		c0.019-0.56-0.009-1.133-0.05-1.701c0.996-0.564,1.887-0.954,3.063-0.962c-0.063,0.557-0.145,1.113-0.258,1.66
		C118.72,41.06,118.705,41.056,118.688,41.057 M115.889,43.058c0.03-0.188,0.05-0.38,0.065-0.574
		c0.821-0.599,1.723-0.914,2.714-1.098c-0.053,0.223-0.109,0.445-0.173,0.663C117.541,42.118,116.659,42.493,115.889,43.058
		 M115.842,43.314c0.049,0.047,0.122,0.067,0.19,0.014c0.727-0.555,1.515-0.866,2.39-1.042c-0.297,0.936-0.716,1.82-1.333,2.595
		c-0.244,0.307-0.529,0.597-0.843,0.854c0.017-0.037,0.019-0.081-0.012-0.125c-0.253-0.375-0.657-0.588-1.085-0.607
		C115.506,44.493,115.72,43.92,115.842,43.314 M113.064,46.762c-0.653-0.099-1.3-0.442-1.587-1.028
		c0.322,0.304,0.757,0.491,1.24,0.541c0.187,0.02,0.372,0.013,0.55-0.013c0.15,0.05,0.307,0.085,0.449,0.147
		c0.185,0.082,0.35,0.191,0.501,0.322C113.842,46.805,113.453,46.819,113.064,46.762 M114.478,46.671
		c-0.003-0.003-0.003-0.007-0.006-0.01c-0.171-0.188-0.421-0.401-0.693-0.535c0.434-0.169,0.819-0.46,1.131-0.815
		c0.42-0.058,0.859,0.119,1.12,0.456c0.033,0.044,0.077,0.054,0.117,0.047C115.647,46.202,115.079,46.51,114.478,46.671
		 M113.547,47.316c0.487-0.023,0.989-0.137,1.463-0.309c-0.01,0.021-0.02,0.043-0.028,0.063c-0.062,0.133-0.116,0.273-0.173,0.41
		C114.377,47.473,113.957,47.415,113.547,47.316 M115.677,47.433c-0.188,0.024-0.374,0.04-0.557,0.047
		c0.039-0.09,0.072-0.182,0.106-0.255c0.057-0.122,0.125-0.249,0.184-0.379c0.473-0.211,0.9-0.477,1.237-0.761
		c0.213-0.18,0.407-0.373,0.59-0.575c0.058,0.233,0.128,0.462,0.133,0.71c0.007,0.275-0.051,0.547-0.145,0.805
		C116.729,47.221,116.212,47.361,115.677,47.433 M117.572,46.878c0.188-0.535,0.198-1.18-0.127-1.611
		c0.393-0.48,0.71-1.011,0.971-1.573c0.265,0.781,0.517,1.513,0.631,2.319C118.584,46.348,118.091,46.643,117.572,46.878
		 M119.63,45.557c-0.101,0.084-0.202,0.166-0.306,0.247c-0.027-0.809-0.25-1.632-0.754-2.26c-0.02-0.025-0.044-0.036-0.068-0.037
		c0.354-0.81,0.592-1.68,0.759-2.556c0.907,0.925,1.494,2.007,1.71,3.286C120.555,44.709,120.108,45.152,119.63,45.557
		 M121.866,43.098c-0.193,0.271-0.393,0.539-0.604,0.795c-0.199-1.315-0.864-2.521-1.931-3.35c0.069-0.42,0.127-0.84,0.17-1.253
		c0.007-0.06,0.012-0.12,0.018-0.18c1.229,1.017,1.996,2.335,2.308,3.926C121.834,43.063,121.848,43.084,121.866,43.098
		 M124.017,38.91c-0.156,0.446-0.333,0.888-0.527,1.325c-0.636-1.556-1.9-2.748-3.496-3.344c-0.208-0.078-0.344,0.23-0.137,0.319
		c1.558,0.667,2.752,1.859,3.478,3.369c-0.38,0.805-0.821,1.586-1.328,2.321c-0.11-1.687-1.038-3.257-2.447-4.192
		c0.139-1.555,0.189-3.114,0.35-4.66c0.008,0.011,0.017,0.021,0.028,0.031c0.891,0.696,1.833,1.23,2.61,2.08
		c0.646,0.707,1.162,1.5,1.606,2.341C124.109,38.637,124.064,38.773,124.017,38.91 M124.286,38.065
		c-0.822-1.791-2.395-3.629-4.21-4.224c-0.058-0.019-0.111,0-0.148,0.035c0.035-0.317,0.075-0.633,0.121-0.949
		c0.012,0.028,0.032,0.053,0.065,0.068c1.005,0.431,1.937,0.92,2.754,1.658c0.741,0.669,1.169,1.464,1.711,2.252
		C124.495,37.295,124.397,37.683,124.286,38.065 M124.919,32.011c0.037,0.515,0.053,1.032,0.045,1.549
		c-0.979-1.5-2.486-2.572-4.249-3.029c-0.204-0.053-0.246,0.267-0.049,0.322c1.806,0.502,3.305,1.655,4.281,3.224
		c-0.036,0.767-0.121,1.531-0.259,2.286c-0.766-1.741-2.805-3.203-4.5-3.627c-0.051-0.012-0.091,0.008-0.118,0.04
		c0.112-0.731,0.26-1.459,0.468-2.18c0.169-0.587,0.368-1.151,0.594-1.698C122.539,29.796,123.775,30.804,124.919,32.011
		 M124.881,31.587c-0.963-1.251-2.21-2.312-3.598-3.048c0.174-0.4,0.364-0.789,0.565-1.171c1.041,0.308,1.828,0.89,2.543,1.656
		c0.207,0.779,0.378,1.564,0.47,2.375C124.868,31.462,124.873,31.525,124.881,31.587 M123.993,27.634
		c0.064,0.213,0.126,0.425,0.188,0.637c-0.578-0.601-1.341-1.038-2.13-1.28c0.439-0.795,0.933-1.56,1.466-2.306
		C123.459,25.685,123.702,26.662,123.993,27.634 M121.771,26.503c-0.741-0.093-1.475-0.028-2.174,0.205
		c1.005-0.934,2.179-1.684,3.459-2.245C122.581,25.109,122.153,25.797,121.771,26.503"/>
	<path clip-path="url(#SVGID_2_)" fill="#A6803C" d="M57.71,2.109h0.193l1.194,0.193l0.581-0.193c0.839,0.258,1.301,0.592,1.387,1
		v0.387l-0.193,0.807l0.193,0.774c-0.451,0-1.043,1.129-1.775,3.388c-5.721,5.356-9.958,8.872-12.711,10.55
		c-0.173,0.323-1.506,1.248-4.001,2.775l-2.388,1.581l-0.193-0.194h-0.193c0,0.624-0.463,1.022-1.388,1.194l-4.968,2.775
		c-0.926,0.753-1.388,1.613-1.388,2.581c-0.925,2.387-1.387,6.162-1.387,11.324l-0.194,0.226v0.193l0.194,0.194l-0.194,1v0.968
		c0,7.271-2.129,13.572-6.388,18.906c3.054,0.883,4.581,1.474,4.581,1.775l0.194-0.194h0.194c7.334,2.517,15.152,4.635,23.456,6.356
		v0.193l0.225-0.193h0.194c3.57,0.408,5.355,0.742,5.355,1l1.388-0.193h0.387l0.613,0.387l1.581-0.193l1,0.388l5.776-0.194h0.774
		l2.193,0.194c0.365-0.216,2.484-0.474,6.356-0.774v0.193l9.937-2.581c3.033-1.248,4.689-2.313,4.969-3.194h-0.387V65.12
		l0.774-1.001l-0.388-1l0.192-0.193h0.195l0.226,0.193l0.193-0.774l-0.419-1.193l0.226-0.226h0.387c0.259,0,0.388,0.269,0.388,0.807
		l0.193,0.193h0.42c0-0.517,0.129-0.774,0.387-0.774s0.462,0.398,0.613,1.193l-0.613,0.193v0.388c0.408,0,0.613,0.129,0.613,0.387
		v0.42c-0.409,0.387-0.807,1.376-1.194,2.968c-2.452,2.108-4.506,3.302-6.162,3.582c0-0.259,0.193-0.388,0.581-0.388v-0.226h-0.193
		c-2.151,0.946-5.195,1.742-9.132,2.388v-0.193l-2.58,0.612l-0.226-0.193h-0.194l-1.387,0.387l-0.194-0.193l-2.774,0.388
		l-0.807-0.388l-1.193,0.388h-3.775c-1.979,0-2.968-0.13-2.968-0.388l-0.226,0.193h-0.194l-0.193-0.193l-1,0.193h-1.194
		l-0.387-0.387l-0.807,0.387c-0.753-0.086-1.344-0.29-1.775-0.612l-0.193,0.226v0.193l-1.581-0.419l-0.226,0.226h-0.193
		l-1.388-0.419l-0.193,0.193l-2.194-0.581l-0.194,0.193h-0.193c-9.336-1.957-17.219-4.141-23.65-6.549l-3.968-1.001h-0.226
		l0.226,0.194V64.7h-0.226l-0.194-0.193h-0.193l0.193-0.193v-0.388h-1.193c-1.012,1.313-2.99,2.828-5.937,4.549h-0.226l-0.193-0.193
		h-0.194c0,0.603-1.527,1.398-4.581,2.388l-0.194-0.193l-0.387,0.388h-0.194l-0.193-0.194h-0.226c0,0.365-1.452,0.634-4.356,0.807
		c-2.387-0.517-3.581-1.839-3.581-3.969l0.581-1.387L2.83,65.313c0-0.538,0.334-0.807,1.001-0.807l0.193-0.193l0.194,0.193V64.7
		c1.01-0.925,1.677-1.388,2-1.388l-0.387-0.387v0.387c-0.409,0-0.613,0.141-0.613,0.42H5.023l-0.387-0.42
		c0.946-0.816,2.334-1.473,4.162-1.968l0.194,0.193v0.194c-1.506,0.451-2.302,0.85-2.388,1.193h0.226
		c1.742-0.925,4.452-1.388,8.13-1.388h0.388l0.806,0.194l0.194-0.194h0.193c1.076,0.087,1.614,0.216,1.614,0.388l0.193-0.193h0.581
		l0.194,0.193l0.225-0.193c1.721,0.193,2.581,0.397,2.581,0.612c1.85-1.634,3.366-3.828,4.549-6.582l-0.193-0.193
		c0.667-0.387,1-0.85,1-1.387l-0.193-0.194l0.387-0.419l-0.194-0.193c0.301,0,0.495-0.323,0.581-0.968h-0.387l0.387-0.613
		l-0.194-0.193l0.42-0.388l-0.226-0.613h0.419v-0.193l-0.193-1c0.344,0,0.666-1.054,0.968-3.162l-0.194-0.226l0.42-2.969
		l-0.226-0.193v-0.194l0.226-0.613l-0.614-0.193V41.47h0.194l0.194,0.194h0.226V41.47l-0.226-0.193l0.226-1V38.47l-0.226-0.774
		c0.279,0,0.548-1.86,0.806-5.582l-0.193-0.581h0.387V31.34l-0.194-0.226V30.92l0.387-0.387l-0.193-0.193v-0.194l0.419-0.419
		l-0.226-0.194l0.42-0.387l-0.194-0.194h-0.226c-3.828,1.979-7.001,2.969-9.517,2.969h-0.613c-0.581,0-1.312-0.527-2.194-1.581
		l0.226-0.613l-0.226-0.581c0.365,0,0.634-0.398,0.806-1.194h0.194l1,0.194l1-0.194l0.581,0.387l0.806-0.387l0.807,0.194
		l1.388-0.387v0.193l1.58-0.419l0.194,0.226l0.193-0.226v-0.194l1.001,0.613l4.194-2c1.441-2.968,3.957-6.41,7.55-10.325
		C47.031,8.615,52.655,4.636,56.098,3.69V3.496h-0.581c-0.559,0.409-1.097,0.613-1.613,0.613V3.884l2.806-1.582l0.581,0.194
		L57.71,2.109z M3.023,67.701l-0.194,0.58h0.419v-0.58H3.023z M12.768,63.119l0.193,0.193v0.194l-0.387,0.419h-0.581l-0.193-0.193
		h-0.226c0,0.215-1.119,0.537-3.356,0.968l-2.194,1.193c0,0.409-0.269,0.613-0.806,0.613V66.7c0.473,1.054,1.075,1.581,1.806,1.581
		v0.42h-1v0.193l1.581,0.193l0.194-0.193h0.194l0.225,0.193h0.194c1.053-0.129,1.581-0.334,1.581-0.613l-0.388-0.387h0.582
		l0.193,0.613c2.452-0.323,5.764-1.851,9.937-4.582v-0.193h-0.774l-0.194,0.193h-0.225l-0.194-0.193v-0.193l0.194-0.226v-0.194
		l-1.388-0.193h-0.968v0.193h0.968v0.42h-0.194l-1.968,0.193l-0.225-0.807H12.768z M10.993,60.926l0.194,0.226v0.193l-0.194,0.193
		h-0.194l-0.193-0.193v-0.193l0.193-0.226H10.993z M12.379,60.926h0.807v0.419h-0.807V60.926z M13.574,60.926h1.194v0.419h-0.194
		l-0.193-0.193l-0.226,0.193h-0.581V60.926z M19.93,63.313l0.387,0.42h0.226v-0.42H19.93z M27.672,26.952h0.194v0.194l-0.387,0.387
		h-0.194v-0.194L27.672,26.952z M34.254,24.565h0.194c3.957-2.087,8.001-4.603,12.131-7.55c3.247-2.28,6.818-5.399,10.711-9.357
		c-0.387,0-0.581-0.129-0.581-0.387l0.388-0.387h0.387v0.387l0.419-0.387V6.69h-0.419V6.497l0.419-0.613H57.71
		c-0.903,0-3.291,0.86-7.163,2.581c-0.581,0-2.301,1.065-5.162,3.194l-3,2.775C38.19,18.585,35.48,21.962,34.254,24.565
		 M56.291,7.884l0.226,0.194v0.193l-0.226,0.194h-0.193l-0.194-0.194V8.078l0.194-0.194H56.291z"/>
	<path clip-path="url(#SVGID_2_)" fill="#A6803C" d="M54.096,47.858l0.388,0.258l0.128-0.129h0.13c0.946,0,1.419,0.345,1.419,1.032
		l-0.387,0.517l0.387,0.388v0.129l-0.387,0.387c0-0.344-0.086-0.516-0.258-0.516h-0.129l-0.258,1.161
		c-1.893,2.087-6.883,4.883-14.971,8.389l0.13,0.128l-0.13,0.646l0.259,0.774c0.258,0,0.516,0.172,0.774,0.516
		c0.645,0.108,0.989,0.28,1.032,0.517l0.13-0.129h0.129l0.387,0.386l-0.13,0.13v0.13h0.517v-0.388h0.258v0.258l-0.129,0.13V62.7
		h0.258c3.377,0,8.087-0.871,14.132-2.613l0.387,0.387c-0.259,0.431-0.603,0.646-1.033,0.646c0,0.344-0.258,0.516-0.774,0.516
		l-0.129-0.129v-0.129l0.129-0.129h-0.129c-0.173,0-0.258,0.173-0.258,0.517h-0.13l-0.257-0.259l0.129-0.129l-1.162,0.258
		l0.129,0.13v0.129l-0.129,0.129h-0.129l-0.129-0.129v-0.129l0.129-0.13c-1.248,0.624-1.871,1.022-1.871,1.194l0.129,0.129
		l-0.129,0.129h-0.129l-0.129-0.129v-0.129l0.129-0.129h-0.129c-1.291,0.15-1.936,0.365-1.936,0.645v0.13h-0.516v-0.259h0.258
		v-0.129h-0.516c-0.173,0-0.259,0.173-0.259,0.516h-0.258v-0.128l0.129-0.13v-0.129h-0.516l-0.258,0.259l0.129,0.128l-0.129,0.13
		h-0.516v-0.13l0.129-0.128v-0.13l-0.129-0.129c-0.345,0.129-0.517,0.259-0.517,0.387l0.13,0.13l-0.13,0.129H46.74v-0.259h0.258
		v-0.128h-0.387l-0.387,0.128l0.129,0.13v0.129l-0.258,0.258l-0.774-0.129l-0.129,0.129h-0.129l-0.388-0.129l-1.936,0.258
		l-0.257-0.258l-0.517,0.129c-2.409-0.666-3.538-1.451-3.387-2.354v-0.646c-1.356,0.903-1.979,0.376-1.872-1.581l0.549-0.646
		l0.548,0.291l0.129,0.128v0.13l-0.387,0.129v0.258l1.452-1.387v-0.13h-0.258v-0.387c0.323,0,0.882-0.646,1.678-1.936l1.032-0.903
		v0.387c-0.215,0-0.602,0.431-1.161,1.291h0.129c2.581-2.925,5.377-5.033,8.388-6.324v-0.13h-0.129
		c-0.322,0-0.753,0.217-1.291,0.646h-0.257v-0.129c0.859-0.646,2.236-1.334,4.129-2.065L54.096,47.858z M41.579,57.279v0.129
		c6.754-3.032,10.625-5.227,11.615-6.581h-0.129c-0.602,0.408-0.903,0.71-0.903,0.903h-0.387v-0.129l0.903-0.903
		C48.182,51.859,44.482,54.053,41.579,57.279 M42.739,53.666h0.259v0.129l-1.162,1.032l-0.129-0.129v-0.129
		C41.879,54.569,42.224,54.269,42.739,53.666 M42.739,56.376h0.13v0.259h-0.387L42.739,56.376z M43.514,53.149h0.129v0.388h-0.387
		v-0.129L43.514,53.149z M43.514,63.732h0.517v-0.13h-0.517V63.732z M44.03,52.634l0.258,0.258v0.128l-0.516,0.13v-0.258
		L44.03,52.634z M44.289,63.861h0.387v-0.259h-0.129L44.289,63.861z M44.935,63.732h0.774v-0.13h-0.774V63.732z M45.708,51.602
		l0.129,0.129v0.258h-0.129L45.45,51.73l0.129-0.129H45.708z M46.87,50.956v0.129l-0.645,0.517h-0.129v-0.259
		C46.182,51.085,46.439,50.956,46.87,50.956 M48.935,50.31h0.129l0.775-0.257v-0.259C49.235,49.902,48.935,50.074,48.935,50.31
		 M49.966,49.665v0.129h0.13l1.419-0.387v-0.129h-0.129L49.966,49.665z M56.484,61.248v0.129h0.129L57,61.248v-0.129h-0.129
		L56.484,61.248z"/>
	<path clip-path="url(#SVGID_2_)" fill="#A6803C" d="M70.003,49.504c1.979,0.216,2.968,0.56,2.968,1.032l0.645-0.129h0.259
		l0.517,0.517v0.258l-0.129,0.646c0.258,0,0.387,0.086,0.387,0.258v0.258l-0.903,1.42l0.129-1.032v-0.129h-0.129
		c-0.754,2.021-1.398,3.27-1.936,3.742l-1.291,1.678c0,0.839,0.388,1.517,1.162,2.033v0.548h0.129l0.097-0.129l0.129-0.129h0.129
		c0.517,0.172,0.774,0.344,0.774,0.517l2.194-0.549l-1.646,0.354l1.128-0.226c0.26,0,0.389,0.086,0.389,0.258v0.388
		c0,0.258-0.173,0.387-0.517,0.387l0.128,0.129v0.13c0,0.172-0.859,0.483-2.58,0.936c-2.216-0.366-3.323-1.484-3.323-3.355
		c-4.064,2.603-6.99,4.022-8.775,4.259l-1.291,0.258c-0.925-0.215-1.656-0.774-2.194-1.678l-0.129-0.517
		c0.387-2.15,0.817-3.226,1.291-3.226l0.129-0.13l-0.129-0.129v-0.129l0.258-0.516L58,57.635h0.258
		c2.108-2.947,4.388-4.926,6.84-5.937l0.129-0.129v-0.259l-1.291,0.646h-0.258v-0.129c0.581-0.56,2.173-1.247,4.775-2.065h1.16
		L70.003,49.504z M56.709,62.022h0.129v-0.646h-0.129V62.022z M58.13,60.216c0.322,0.71,0.753,1.183,1.291,1.419l0.257-0.258
		l0.13,0.129h0.129l0.258-0.258l0.129,0.129h0.129l2.581-0.903v0.258l-1.807,0.774l0.388,0.129l3.872-1.807
		c2.322-1.526,3.484-2.388,3.484-2.581c0-0.839,0.602-2.43,1.807-4.774v-0.13l-2.065-0.258c-2.215,0.28-4.581,1.398-7.097,3.355
		l-2.065,2.065C58.688,58.774,58.216,59.678,58.13,60.216 M59.55,55.312l0.128,0.129v0.129l-0.128,0.129h-0.129l-0.13-0.129V55.44
		l0.13-0.129H59.55z M60.453,61.635l0.258,0.259h0.129v-0.259H60.453z M62.518,52.602l0.129,0.129v0.129l-0.129,0.129H62.26v-0.129
		L62.518,52.602z M65.099,59.441l0.129,0.129v0.129l-0.129,0.129H64.97l-0.129-0.129V59.57l0.129-0.129H65.099z M65.486,51.311
		h0.258c0.344-0.258,0.73-0.387,1.161-0.387l0.128-0.129v-0.13h-0.128C65.959,50.924,65.486,51.139,65.486,51.311 M67.164,50.536
		v0.129h0.645v-0.258L67.164,50.536z M67.809,57.764v0.387H67.68l-0.258-0.258l0.129-0.129H67.809z M68.971,59.054v0.646L69.1,59.57
		h0.129L69.1,59.054H68.971z M70.261,59.57v0.129c0.279,0.517,0.495,0.774,0.646,0.774v-0.129L70.261,59.57z"/>
	<path clip-path="url(#SVGID_2_)" fill="#A6803C" d="M104.396,18.595l0.774,0.452l0.322-0.29h0.452
		c0.408,0.172,0.612,0.527,0.612,1.064v0.162l-0.29,0.484l0.451,0.451c0,0.194-0.354,0.291-1.064,0.291
		c-1.828,4-6.937,11.378-15.324,22.133c-2.904,3.419-4.658,6.097-5.26,8.033c-1.742,3.291-3.098,6.313-4.065,9.066v0.161
		c0.407,0,0.613,0.097,0.613,0.291l-0.29,0.322l0.773,0.161l0.162-0.161l1.064,0.161l1.258-0.161v0.161l0.451-0.161
		c0.796-0.021,2.528-0.537,5.195-1.549c0.839-0.86,1.388-0.968,1.646-0.322l-0.129,1.161l-1.162-0.129
		c-0.602,0.043-1.043,0.279-1.322,0.71v-0.16c-1.226,0.772-2.947,1.278-5.162,1.515l0.161,0.162v0.161
		c-0.731,0.193-1.506,0.29-2.323,0.29l-0.161-0.128v-0.162l0.161-0.161v-0.162h-0.451l0.129,0.162v0.161
		c-1.012,0.646-1.517,1.162-1.517,1.549l-0.161,0.129c0.193,0.451-0.054,2.129-0.742,5.033v0.612l-0.161,0.936l0.161,0.162
		c-0.688,5.033-1.463,8.689-2.323,10.97l-1.549,3.097l0.162,0.161v0.323l-1.71,1.387h-0.291c-0.322,0-0.483-0.312-0.483-0.936
		c-0.408,0-0.613-0.107-0.613-0.322v-1.388l0.774-2h-0.161l0.612-1.388l-0.129-0.161v-0.161l3.549-10.97l1.517-4.58l-0.161-0.131
		l0.161-0.483h0.129v-0.452l-0.129,0.162H78.23c0-0.624-0.517-1.452-1.549-2.484c0-0.215,0.204-0.323,0.613-0.323v-0.451
		l-0.613-0.774c0.065-0.56,0.279-0.817,0.646-0.774l0.451-0.161l0.613,0.483l0.29-0.322h0.484c0.517,0.302,0.774,0.71,0.774,1.226
		l0.161,0.162h0.129l4.679-10.583l-6.518,9.002c-0.495,0.172-1.581,1.054-3.259,2.646h-0.161l-0.29-0.323l0.161-0.161v-0.161
		l-0.646-0.129v-0.646c0-0.193,0.215-0.29,0.646-0.29l0.129-0.161v-0.161l-0.452-0.613c0-0.517,0.409-0.774,1.228-0.774
		c0-0.278,0.516-0.635,1.548-1.064c0-0.431,0.258-0.742,0.774-0.937h0.322v0.162l-0.161,0.129v0.161h0.161
		c7.119-8.754,10.689-13.615,10.712-14.583c1.054-1.463,2.032-3.108,2.936-4.937c0.215-0.064,0.731-0.892,1.549-2.484
		c0.517-0.301,0.774-0.71,0.774-1.226c0.258,0,0.462-0.312,0.613-0.936c0.301,0,0.451-0.258,0.451-0.774
		c0.537-0.452,2.247-2.925,5.13-7.42c1.85-2.581,2.925-3.872,3.227-3.872v-0.29c-0.409,0.085-0.613,0.29-0.613,0.612l-0.322-0.322
		c0.172,0,0.387-0.355,0.646-1.065l0.129-0.645L104.396,18.595z M77.811,69.313c-1.011,2.087-1.839,4.979-2.484,8.68
		c-0.301,0.71-0.709,2.462-1.226,5.259v0.161h0.161c0-0.215,0.247-0.419,0.742-0.612c0-0.345,0.517-1.432,1.549-3.259V79.38
		l-0.129-0.451c0.193,0,0.451-0.624,0.774-1.871h-0.162l0.291-0.613l-0.291-0.323h0.291V75.67l-0.129-0.452h0.129
		c0.215,0,0.322-0.365,0.322-1.097h-0.322V73.96c0.365,0,0.58-0.463,0.646-1.388l-0.162-0.161v-0.129l0.162-0.646h-0.323v-0.29
		c0.301,0,0.452-0.258,0.452-0.774l-0.129-0.161h-0.162l0.162-0.161v-0.937H77.811z M77.456,57.603l-0.613,0.936h0.161l0.613-0.936
		H77.456z M82.876,62.604h0.773v-0.162h-0.773V62.604z M94.976,33.759l0.161,0.162v0.129l-4.969,7.743h0.162l3.258-4.162
		c3.656-4.818,6.797-9.464,9.421-13.938v-0.162c-1.871,2.109-3.517,4.227-4.937,6.356c-0.279,0-0.796,0.721-1.549,2.162
		c-0.258,0.064-0.624,0.581-1.097,1.549L94.976,33.759z"/>
</g>
</svg>
