<?xml version="1.0" encoding="utf-8"?>
<!-- Generated by IcoMoon.io -->
<!DOCTYPE svg PUBLIC "-//W3C//DTD SVG 1.1//EN" "http://www.w3.org/Graphics/SVG/1.1/DTD/svg11.dtd">
<svg version="1.1" xmlns="http://www.w3.org/2000/svg" xmlns:xlink="http://www.w3.org/1999/xlink" width="19" height="24" viewBox="0 0 19 24">
<path fill="#444" d="M17.989 1.288c-0.411 0.024-0.821 0.081-1.23 0.165-0.018-0.021-0.043-0.039-0.073-0.050-3.066-1.131-6.354-0.122-8.684 2.035-1.171 1.084-2.119 2.372-3.024 3.678-0.541 0.781-1.146 1.654-2.112 1.926-0.935 0.262-2.023-0.321-1.93-1.336 0.407-0.402 1.16-0.281 1.252 0.37 0.021 0.15 0.274 0.123 0.266-0.030-0.030-0.53-0.464-0.949-1.006-0.951-0.601-0.002-1.032 0.53-1.13 1.082-0.034 0.19-0.034 0.369-0.010 0.537-0.036 0.019-0.063 0.058-0.055 0.105 0.213 1.305 1.422 2.293 2.599 2.739 0.537 0.204 1.101 0.313 1.672 0.35 0.022 0.040 0.079 0.065 0.118 0.023 0.005-0.004 0.009-0.009 0.013-0.014 1.006 0.046 2.032-0.125 2.983-0.401 1.064-0.309 2.080-0.778 3.017-1.374 0.040 0.026 0.1 0.019 0.122-0.041 0.005-0.016 0.010-0.033 0.016-0.049 0.816-0.536 1.568-1.17 2.234-1.884 0.042 0.014 0.091 0 0.105-0.057 0.006-0.025 0.009-0.048 0.016-0.073 0.422-0.465 0.808-0.964 1.149-1.491 0.435-0.668 0.79-1.38 1.084-2.12 0.38-0.953 0.709-1.936 1.499-2.634 0.015-0.014 0.026-0.028 0.034-0.043 0.361-0.093 0.725-0.179 1.096-0.261 0.111-0.024 0.096-0.207-0.021-0.201zM12.647 1.411c0.011 0.007 0.024 0.014 0.038 0.017 0.634 0.14 1.203 0.404 1.702 0.807-0.428 0.19-0.843 0.398-1.239 0.62-0.048 0.027-0.095 0.053-0.142 0.081 0.026-0.026 0.037-0.072 0.007-0.104-0.468-0.48-1.2-0.908-1.918-0.992 0.507-0.201 1.027-0.342 1.553-0.428zM10.629 2.044c0.365 0.068 0.731 0.087 1.088 0.214 0.446 0.159 0.83 0.4 1.203 0.687 0.016 0.012 0.034 0.015 0.049 0.012-0.264 0.153-0.519 0.316-0.766 0.487 0.003-0.032-0.006-0.064-0.035-0.089-0.65-0.546-1.439-0.886-2.275-0.915 0.237-0.144 0.484-0.275 0.736-0.396zM9.499 2.696c0.932 0.002 1.77 0.248 2.508 0.853 0.008 0.007 0.017 0.011 0.025 0.015-0.275 0.196-0.542 0.401-0.8 0.615-0.004-0.004-0.004-0.009-0.009-0.014-0.707-0.684-1.654-0.934-2.603-0.8 0.281-0.24 0.574-0.464 0.879-0.67zM10.148 5.092c-0.736-0.485-1.57-0.765-2.441-0.872 0.206-0.213 0.419-0.418 0.638-0.616 0.021 0.013 0.047 0.020 0.078 0.014 0.97-0.194 1.883 0.098 2.648 0.698-0.305 0.26-0.601 0.53-0.891 0.811-0.007-0.012-0.016-0.024-0.032-0.035zM7.503 4.437c0.002 0 0.003 0.001 0.005 0.002 0.911 0.107 1.733 0.384 2.545 0.809 0.001 0.001 0.002 0 0.004 0.001-0.118 0.117-0.238 0.236-0.354 0.356 0.013-0.037 0.005-0.081-0.039-0.11-0.75-0.479-1.6-0.702-2.481-0.703 0.105-0.12 0.213-0.238 0.321-0.355zM6.429 5.708c0.181-0.233 0.368-0.464 0.559-0.691 0.014 0.004 0.027 0.009 0.045 0.008 0.905-0.012 1.728 0.215 2.524 0.64 0.028 0.015 0.056 0.016 0.080 0.008-0.264 0.273-0.522 0.551-0.778 0.835-0.043 0.048-0.086 0.095-0.129 0.143-0.672-0.538-1.597-0.865-2.458-0.731 0.052-0.073 0.103-0.144 0.157-0.212zM6.18 6.044c0.013 0.027 0.039 0.050 0.073 0.052 0.883 0.071 1.595 0.231 2.344 0.699-0.304 0.337-0.618 0.681-0.944 1.017-0.56-0.49-1.333-0.863-2.095-0.845 0.212-0.318 0.415-0.631 0.622-0.923zM6.618 8.743c-0.566-0.402-1.224-0.586-1.907-0.618 0.251-0.297 0.482-0.62 0.704-0.947 0.784 0.122 1.437 0.294 2.080 0.796-0.275 0.274-0.558 0.543-0.855 0.791-0.007-0.007-0.013-0.015-0.023-0.022zM4.234 8.625c0.098-0.090 0.192-0.184 0.284-0.284 0.703 0.029 1.33 0.245 1.947 0.571-0.124 0.1-0.25 0.195-0.378 0.286-0.548-0.373-1.19-0.548-1.852-0.574zM4.099 8.745c0.006 0.046 0.038 0.089 0.098 0.091 0.633 0.010 1.195 0.18 1.747 0.462-0.563 0.381-1.171 0.681-1.842 0.836-0.264 0.062-0.544 0.097-0.824 0.101 0.025-0.013 0.044-0.036 0.047-0.072 0.024-0.313-0.105-0.603-0.329-0.798 0.414-0.125 0.777-0.343 1.104-0.62zM1.106 9.424c-0.314-0.336-0.518-0.8-0.421-1.243 0.044 0.303 0.2 0.594 0.441 0.828 0.094 0.091 0.197 0.168 0.306 0.23 0.059 0.091 0.129 0.178 0.18 0.274 0.064 0.124 0.107 0.255 0.133 0.391-0.236-0.122-0.453-0.281-0.638-0.48zM1.912 9.982c0.001-0.002 0.002-0.004 0.001-0.007-0.011-0.176-0.055-0.4-0.146-0.59 0.308 0.095 0.642 0.104 0.965 0.044 0.254 0.149 0.416 0.433 0.413 0.73-0.001 0.038 0.018 0.063 0.044 0.076-0.439-0.003-0.88-0.081-1.277-0.252zM1.128 9.932c0.276 0.197 0.597 0.352 0.929 0.462-0.014 0.008-0.029 0.016-0.043 0.022-0.091 0.047-0.18 0.099-0.27 0.149-0.231-0.19-0.435-0.402-0.615-0.633zM2.236 10.912c-0.113-0.067-0.221-0.139-0.322-0.214 0.060-0.033 0.118-0.068 0.167-0.093 0.083-0.043 0.176-0.082 0.264-0.128 0.348 0.089 0.693 0.129 0.999 0.12 0.193-0.006 0.383-0.028 0.569-0.059-0.069 0.151-0.129 0.306-0.234 0.444-0.115 0.152-0.263 0.276-0.425 0.374-0.354-0.106-0.697-0.252-1.018-0.444zM3.506 11.427c0.332-0.21 0.615-0.556 0.625-0.931 0.42-0.092 0.821-0.244 1.204-0.437-0.193 0.538-0.37 1.045-0.656 1.531-0.396-0.017-0.791-0.068-1.173-0.163zM5.192 11.594c-0.090 0.003-0.182 0.003-0.272 0.003 0.333-0.453 0.567-0.996 0.563-1.555 0-0.021-0.009-0.037-0.022-0.049 0.541-0.288 1.045-0.659 1.513-1.062 0.095 0.893-0.051 1.733-0.485 2.522-0.429 0.078-0.863 0.128-1.297 0.141zM7.467 11.22c-0.222 0.064-0.445 0.124-0.671 0.172 0.459-0.8 0.616-1.743 0.393-2.651 0.219-0.198 0.43-0.402 0.632-0.608 0.029-0.030 0.058-0.060 0.087-0.091 0.231 1.083 0.080 2.129-0.434 3.127-0.009 0.019-0.010 0.037-0.007 0.051zM10.438 9.869c-0.277 0.176-0.563 0.339-0.856 0.494 0.324-1.12 0.149-2.312-0.462-3.323-0.080-0.132-0.286-0.023-0.212 0.114 0.56 1.034 0.696 2.195 0.44 3.329-0.553 0.274-1.129 0.508-1.722 0.69 0.667-0.965 0.839-2.218 0.475-3.333 0.745-0.784 1.443-1.61 2.197-2.382-0.001 0.009-0.001 0.019 0.002 0.028 0.184 0.763 0.466 1.459 0.522 2.254 0.048 0.664-0.013 1.316-0.133 1.964-0.082 0.056-0.167 0.111-0.252 0.165zM10.949 9.526c0.324-1.328 0.261-3.003-0.471-4.107-0.023-0.035-0.060-0.049-0.095-0.045 0.154-0.158 0.314-0.312 0.473-0.464-0.005 0.021-0.004 0.044 0.007 0.065 0.361 0.667 0.657 1.334 0.784 2.087 0.114 0.684 0.005 1.299-0.040 1.961-0.214 0.176-0.433 0.343-0.658 0.504zM13.898 6.507c-0.201 0.297-0.416 0.583-0.642 0.861 0.113-1.236-0.245-2.467-1.006-3.475-0.089-0.117-0.248 0.039-0.165 0.154 0.765 1.050 1.084 2.321 0.94 3.595-0.35 0.402-0.726 0.78-1.125 1.13 0.334-1.275-0.146-2.947-0.885-3.907-0.022-0.028-0.052-0.034-0.082-0.028 0.377-0.35 0.771-0.681 1.194-0.984 0.344-0.246 0.695-0.467 1.053-0.668 0.377 1.094 0.616 2.173 0.718 3.322zM14.059 6.26c0.016-1.094-0.205-2.208-0.642-3.205 0.266-0.142 0.537-0.272 0.811-0.393 0.433 0.615 0.61 1.27 0.669 1.994-0.222 0.513-0.466 1.013-0.767 1.494-0.022 0.038-0.048 0.073-0.071 0.11zM15.279 3.73c-0.057 0.143-0.114 0.285-0.172 0.427-0.056-0.576-0.282-1.141-0.607-1.612 0.581-0.243 1.179-0.447 1.789-0.622-0.462 0.518-0.749 1.154-1.010 1.808zM14.557 2.159c-0.362-0.37-0.79-0.65-1.269-0.825 0.947-0.074 1.909 0.022 2.847 0.269-0.537 0.146-1.065 0.336-1.577 0.556z"></path>
<path fill="#444" d="M18.283 1.192c-0.381 0.34-0.738 0.712-1.069 1.109-0.034-0.007-0.071-0.005-0.112 0.008-3.857 1.262-6.284 4.781-6.888 8.681-0.304 1.958-0.235 3.945-0.108 5.914 0.075 1.178 0.158 2.496-0.573 3.506-0.709 0.977-2.217 1.246-2.91 0.188 0.086-0.706 0.913-1.168 1.505-0.606 0.136 0.13 0.363-0.092 0.236-0.233-0.437-0.493-1.184-0.567-1.714-0.151-0.585 0.462-0.595 1.312-0.266 1.926 0.114 0.211 0.251 0.385 0.405 0.53-0.019 0.046-0.017 0.106 0.026 0.146 1.215 1.107 3.155 1.136 4.645 0.663 0.681-0.215 1.314-0.546 1.9-0.949 0.053 0.022 0.126 0.002 0.132-0.068 0.001-0.009 0.001-0.018 0.002-0.025 1.016-0.73 1.882-1.688 2.595-2.69 0.8-1.123 1.427-2.363 1.88-3.667 0.058-0.003 0.113-0.058 0.087-0.133-0.006-0.021-0.014-0.042-0.023-0.061 0.383-1.151 0.626-2.35 0.724-3.56 0.052-0.018 0.087-0.069 0.057-0.136-0.011-0.027-0.027-0.055-0.040-0.083 0.051-0.78 0.043-1.562-0.030-2.339-0.091-0.987-0.294-1.954-0.579-2.902-0.368-1.222-0.804-2.433-0.572-3.724 0.004-0.024 0.004-0.046 0-0.066 0.281-0.37 0.57-0.735 0.868-1.1 0.089-0.106-0.067-0.274-0.177-0.177zM13.174 5.432c0.017-0.002 0.033-0.005 0.050-0.013 0.726-0.352 1.483-0.533 2.28-0.526-0.27 0.513-0.513 1.036-0.728 1.559-0.027 0.062-0.052 0.125-0.076 0.188 0.006-0.048-0.018-0.1-0.073-0.107-0.827-0.107-1.87 0.040-2.634 0.512 0.338-0.587 0.736-1.125 1.182-1.614zM11.696 7.607c0.408-0.216 0.78-0.48 1.226-0.631 0.557-0.189 1.116-0.249 1.701-0.258 0.025-0.001 0.044-0.011 0.059-0.026-0.139 0.353-0.263 0.709-0.372 1.065-0.022-0.034-0.056-0.057-0.104-0.059-1.053-0.031-2.085 0.247-2.92 0.863 0.12-0.325 0.259-0.642 0.411-0.953zM11.098 9.112c0.909-0.718 1.915-1.123 3.102-1.104 0.012 0 0.023-0.002 0.035-0.005-0.117 0.403-0.218 0.808-0.304 1.216-0.007-0.002-0.012-0.006-0.020-0.006-1.216-0.12-2.332 0.366-3.153 1.23 0.089-0.45 0.202-0.894 0.339-1.332zM13.58 10.946c-1.092 0.096-2.12 0.466-3.050 1.034 0.037-0.366 0.085-0.731 0.146-1.093 0.030-0.004 0.060-0.016 0.086-0.046 0.795-0.937 1.91-1.358 3.119-1.363-0.098 0.489-0.177 0.981-0.243 1.477-0.016-0.007-0.035-0.011-0.057-0.009zM10.498 12.348c0.002-0.001 0.004-0.001 0.006-0.002 0.97-0.599 1.985-0.963 3.102-1.175 0.002 0 0.003-0 0.005-0.002-0.025 0.206-0.048 0.413-0.070 0.62-0.016-0.047-0.057-0.083-0.124-0.077-1.099 0.113-2.099 0.549-2.959 1.23 0.011-0.198 0.023-0.395 0.039-0.594zM10.431 14.416c-0.004-0.368 0.001-0.737 0.011-1.107 0.017-0.007 0.034-0.013 0.050-0.026 0.873-0.711 1.849-1.125 2.952-1.325 0.039-0.007 0.066-0.026 0.084-0.053-0.045 0.469-0.082 0.94-0.114 1.414-0.005 0.078-0.011 0.159-0.016 0.238-1.068-0.006-2.221 0.389-2.957 1.184-0.005-0.111-0.009-0.22-0.010-0.326zM10.449 14.935c0.034 0.016 0.076 0.018 0.111-0.007 0.916-0.611 1.735-1.004 2.824-1.128-0.036 0.563-0.076 1.14-0.135 1.719-0.924-0.046-1.964 0.187-2.694 0.793-0.038-0.471-0.081-0.935-0.105-1.377zM12.957 17.226c-0.861 0.045-1.645 0.374-2.334 0.869 0.016-0.484-0.008-0.977-0.043-1.466 0.858-0.487 1.625-0.821 2.639-0.829-0.054 0.48-0.125 0.959-0.223 1.43-0.012-0.002-0.025-0.006-0.039-0.005zM10.545 18.949c0.026-0.161 0.043-0.327 0.057-0.494 0.707-0.517 1.484-0.788 2.337-0.947-0.045 0.192-0.094 0.384-0.148 0.571-0.822 0.061-1.582 0.384-2.246 0.87zM10.504 19.17c0.042 0.040 0.105 0.058 0.164 0.013 0.625-0.479 1.305-0.747 2.058-0.899-0.256 0.807-0.616 1.569-1.148 2.236-0.21 0.265-0.456 0.514-0.726 0.736 0.014-0.032 0.016-0.070-0.010-0.107-0.218-0.323-0.566-0.507-0.934-0.524 0.306-0.438 0.491-0.932 0.596-1.454zM8.111 22.14c-0.563-0.084-1.12-0.382-1.367-0.885 0.278 0.261 0.652 0.423 1.068 0.466 0.16 0.018 0.32 0.011 0.473-0.010 0.129 0.043 0.264 0.073 0.387 0.128 0.159 0.071 0.301 0.164 0.432 0.277-0.324 0.063-0.659 0.075-0.994 0.025zM9.328 22.062c-0.002-0.002-0.002-0.006-0.005-0.008-0.147-0.162-0.363-0.346-0.598-0.462 0.373-0.146 0.706-0.397 0.974-0.703 0.362-0.050 0.741 0.103 0.965 0.393 0.029 0.039 0.066 0.047 0.101 0.041-0.43 0.335-0.92 0.599-1.438 0.739zM8.527 22.618c0.42-0.021 0.852-0.118 1.26-0.266-0.009 0.018-0.017 0.037-0.025 0.055-0.053 0.114-0.1 0.235-0.149 0.352-0.372-0.007-0.734-0.057-1.087-0.142zM10.362 22.719c-0.162 0.022-0.322 0.035-0.479 0.040 0.033-0.078 0.062-0.156 0.091-0.219 0.049-0.105 0.108-0.215 0.158-0.327 0.407-0.181 0.776-0.41 1.067-0.655 0.183-0.155 0.35-0.321 0.508-0.496 0.050 0.201 0.111 0.398 0.115 0.612 0.006 0.237-0.044 0.471-0.125 0.693-0.427 0.169-0.873 0.291-1.334 0.352zM11.995 22.24c0.161-0.461 0.171-1.016-0.11-1.388 0.338-0.414 0.612-0.872 0.836-1.356 0.229 0.674 0.445 1.304 0.544 1.998-0.399 0.288-0.823 0.542-1.27 0.745zM13.768 21.102c-0.087 0.072-0.175 0.144-0.264 0.213-0.024-0.696-0.215-1.406-0.649-1.946-0.016-0.023-0.038-0.032-0.059-0.032 0.305-0.698 0.51-1.447 0.654-2.203 0.781 0.797 1.287 1.73 1.473 2.831-0.359 0.409-0.743 0.789-1.155 1.138zM15.694 18.984c-0.166 0.233-0.338 0.465-0.52 0.685-0.172-1.134-0.744-2.172-1.664-2.887 0.060-0.361 0.11-0.723 0.146-1.079 0.006-0.052 0.011-0.104 0.016-0.155 1.059 0.876 1.719 2.011 1.987 3.383 0.007 0.023 0.018 0.042 0.034 0.053zM17.548 15.375c-0.135 0.384-0.287 0.765-0.455 1.141-0.547-1.34-1.637-2.367-3.012-2.88-0.179-0.067-0.296 0.197-0.117 0.275 1.342 0.574 2.371 1.601 2.996 2.902-0.327 0.693-0.707 1.366-1.144 1.999-0.095-1.454-0.894-2.806-2.108-3.612 0.119-1.34 0.162-2.683 0.301-4.015 0.007 0.010 0.014 0.018 0.025 0.027 0.768 0.599 1.58 1.060 2.249 1.793 0.557 0.609 1.001 1.292 1.384 2.016-0.038 0.119-0.077 0.237-0.118 0.354zM17.779 14.649c-0.709-1.543-2.063-3.127-3.627-3.64-0.049-0.017-0.096 0-0.128 0.030 0.030-0.273 0.064-0.544 0.104-0.817 0.010 0.024 0.027 0.045 0.056 0.058 0.866 0.371 1.669 0.793 2.373 1.428 0.639 0.576 1.007 1.262 1.474 1.94-0.072 0.336-0.156 0.669-0.252 1zM18.325 9.432c0.032 0.443 0.045 0.889 0.039 1.334-0.844-1.292-2.142-2.216-3.661-2.61-0.176-0.046-0.212 0.23-0.042 0.278 1.556 0.432 2.847 1.426 3.688 2.778-0.032 0.661-0.104 1.319-0.223 1.969-0.66-1.499-2.417-2.759-3.877-3.125-0.044-0.010-0.078 0.007-0.102 0.034 0.096-0.63 0.224-1.257 0.403-1.878 0.145-0.506 0.317-0.992 0.512-1.463 1.213 0.774 2.278 1.642 3.263 2.682zM18.291 9.067c-0.829-1.078-1.904-1.992-3.099-2.626 0.149-0.345 0.314-0.68 0.487-1.008 0.897 0.265 1.575 0.766 2.191 1.427 0.178 0.672 0.325 1.347 0.404 2.046 0.006 0.054 0.010 0.108 0.017 0.162zM17.527 5.661c0.056 0.183 0.109 0.366 0.162 0.549-0.498-0.518-1.155-0.894-1.835-1.102 0.379-0.685 0.804-1.344 1.263-1.987-0.050 0.86 0.16 1.702 0.41 2.54zM15.613 4.687c-0.638-0.080-1.271-0.024-1.873 0.177 0.865-0.805 1.877-1.451 2.98-1.934-0.41 0.556-0.78 1.149-1.108 1.757z"></path>
</svg>
