<?xml version="1.0" encoding="utf-8"?>
<!-- Generated by IcoMoon.io -->
<!DOCTYPE svg PUBLIC "-//W3C//DTD SVG 1.1//EN" "http://www.w3.org/Graphics/SVG/1.1/DTD/svg11.dtd">
<svg version="1.1" xmlns="http://www.w3.org/2000/svg" xmlns:xlink="http://www.w3.org/1999/xlink" width="16" height="20" viewBox="0 0 16 20">
<path fill="#444444" d="M14.991 1.074c-0.342 0.020-0.684 0.068-1.025 0.138-0.015-0.018-0.036-0.033-0.061-0.042-2.555-0.943-5.295-0.102-7.237 1.696-0.976 0.904-1.766 1.977-2.52 3.065-0.451 0.651-0.955 1.379-1.76 1.605-0.779 0.218-1.686-0.268-1.609-1.114 0.34-0.335 0.967-0.234 1.043 0.309 0.017 0.125 0.228 0.103 0.222-0.025-0.025-0.442-0.387-0.79-0.839-0.793-0.501-0.001-0.86 0.441-0.942 0.902-0.028 0.158-0.029 0.307-0.008 0.448-0.030 0.016-0.053 0.049-0.046 0.087 0.177 1.088 1.185 1.911 2.166 2.283 0.448 0.17 0.918 0.261 1.394 0.291 0.018 0.034 0.066 0.054 0.098 0.019 0.004-0.003 0.007-0.008 0.011-0.012 0.838 0.038 1.693-0.104 2.486-0.334 0.887-0.258 1.733-0.648 2.514-1.145 0.034 0.022 0.083 0.016 0.102-0.035 0.004-0.014 0.008-0.027 0.013-0.041 0.68-0.447 1.307-0.975 1.862-1.57 0.035 0.012 0.076 0 0.087-0.048 0.005-0.021 0.008-0.040 0.013-0.061 0.352-0.387 0.673-0.803 0.958-1.242 0.363-0.557 0.658-1.15 0.903-1.767 0.316-0.795 0.59-1.613 1.249-2.195 0.013-0.012 0.022-0.023 0.029-0.036 0.301-0.077 0.604-0.149 0.913-0.217 0.092-0.020 0.080-0.173-0.017-0.168zM10.539 1.176c0.010 0.006 0.020 0.012 0.032 0.014 0.529 0.117 1.003 0.337 1.418 0.672-0.356 0.158-0.703 0.332-1.033 0.517-0.040 0.022-0.079 0.044-0.118 0.067 0.022-0.022 0.031-0.060 0.005-0.087-0.39-0.4-1-0.757-1.598-0.827 0.422-0.167 0.855-0.285 1.294-0.357zM8.857 1.704c0.304 0.056 0.609 0.072 0.906 0.178 0.372 0.132 0.692 0.333 1.003 0.573 0.013 0.010 0.028 0.012 0.041 0.010-0.22 0.128-0.433 0.264-0.639 0.406 0.003-0.027-0.005-0.053-0.029-0.075-0.542-0.455-1.199-0.738-1.895-0.762 0.198-0.12 0.403-0.229 0.614-0.33zM7.916 2.247c0.776 0.001 1.475 0.207 2.090 0.71 0.007 0.006 0.014 0.009 0.021 0.013-0.229 0.163-0.451 0.334-0.667 0.513-0.003-0.003-0.003-0.008-0.007-0.011-0.589-0.57-1.379-0.778-2.169-0.666 0.235-0.2 0.479-0.386 0.732-0.558zM8.457 4.244c-0.614-0.404-1.308-0.638-2.034-0.727 0.172-0.177 0.349-0.348 0.531-0.514 0.018 0.011 0.039 0.017 0.065 0.012 0.809-0.162 1.569 0.082 2.206 0.582-0.254 0.217-0.501 0.442-0.742 0.676-0.006-0.010-0.013-0.020-0.026-0.029zM6.252 3.697c0.001 0 0.003 0.001 0.004 0.001 0.759 0.089 1.444 0.32 2.12 0.674 0.001 0.001 0.002 0 0.003 0.001-0.098 0.098-0.198 0.197-0.295 0.297 0.011-0.031 0.004-0.068-0.033-0.091-0.625-0.399-1.333-0.585-2.068-0.586 0.088-0.1 0.177-0.198 0.267-0.296zM5.357 4.757c0.151-0.195 0.306-0.387 0.466-0.576 0.011 0.003 0.023 0.008 0.037 0.007 0.754-0.010 1.44 0.179 2.104 0.533 0.024 0.012 0.047 0.013 0.066 0.007-0.22 0.227-0.435 0.459-0.649 0.695-0.036 0.040-0.071 0.079-0.107 0.119-0.56-0.448-1.331-0.721-2.048-0.609 0.043-0.061 0.086-0.12 0.131-0.176zM5.15 5.037c0.011 0.023 0.032 0.041 0.061 0.043 0.735 0.059 1.329 0.193 1.954 0.582-0.253 0.281-0.515 0.568-0.787 0.847-0.467-0.408-1.11-0.719-1.746-0.704 0.176-0.265 0.346-0.526 0.518-0.769zM5.515 7.286c-0.472-0.335-1.020-0.488-1.589-0.515 0.209-0.248 0.402-0.517 0.587-0.789 0.653 0.102 1.197 0.245 1.733 0.663-0.229 0.229-0.465 0.452-0.712 0.659-0.005-0.006-0.011-0.012-0.019-0.018zM3.529 7.187c0.081-0.075 0.16-0.154 0.236-0.236 0.586 0.024 1.108 0.204 1.622 0.476-0.104 0.083-0.208 0.162-0.315 0.238-0.457-0.311-0.992-0.456-1.543-0.478zM3.416 7.287c0.005 0.038 0.031 0.074 0.082 0.076 0.528 0.008 0.996 0.15 1.455 0.385-0.469 0.317-0.976 0.567-1.535 0.697-0.22 0.051-0.453 0.081-0.687 0.084 0.021-0.011 0.037-0.030 0.039-0.060 0.020-0.261-0.087-0.502-0.274-0.665 0.345-0.104 0.647-0.286 0.92-0.517zM0.922 7.853c-0.262-0.28-0.431-0.667-0.351-1.036 0.037 0.253 0.167 0.495 0.368 0.69 0.079 0.076 0.164 0.14 0.255 0.192 0.049 0.076 0.108 0.149 0.15 0.228 0.053 0.104 0.090 0.212 0.111 0.325-0.196-0.102-0.377-0.235-0.532-0.4zM1.594 8.318c0.001-0.002 0.001-0.003 0.001-0.006-0.009-0.147-0.045-0.333-0.121-0.492 0.257 0.079 0.535 0.087 0.804 0.037 0.212 0.124 0.346 0.361 0.344 0.608-0.001 0.031 0.015 0.052 0.037 0.063-0.366-0.002-0.733-0.068-1.064-0.21zM0.94 8.277c0.23 0.164 0.498 0.293 0.774 0.385-0.012 0.007-0.024 0.013-0.036 0.018-0.076 0.039-0.15 0.082-0.225 0.124-0.192-0.158-0.362-0.335-0.513-0.527zM1.863 9.093c-0.094-0.056-0.184-0.116-0.268-0.178 0.050-0.027 0.098-0.057 0.139-0.078 0.069-0.036 0.147-0.068 0.22-0.107 0.29 0.074 0.577 0.108 0.833 0.1 0.161-0.005 0.319-0.023 0.474-0.050-0.057 0.126-0.108 0.255-0.195 0.37-0.096 0.127-0.219 0.23-0.354 0.312-0.295-0.088-0.581-0.21-0.849-0.37zM2.922 9.522c0.277-0.175 0.513-0.463 0.521-0.776 0.35-0.077 0.684-0.203 1.003-0.364-0.161 0.448-0.308 0.87-0.546 1.276-0.33-0.014-0.659-0.057-0.978-0.136zM4.327 9.662c-0.075 0.003-0.151 0.003-0.226 0.003 0.277-0.377 0.473-0.83 0.469-1.295 0-0.017-0.008-0.031-0.018-0.041 0.451-0.24 0.871-0.549 1.261-0.885 0.079 0.744-0.043 1.445-0.404 2.101-0.358 0.065-0.719 0.107-1.081 0.117zM6.223 9.35c-0.185 0.053-0.371 0.103-0.559 0.143 0.382-0.667 0.513-1.452 0.328-2.209 0.182-0.165 0.358-0.335 0.527-0.507 0.024-0.025 0.049-0.050 0.072-0.076 0.192 0.903 0.067 1.774-0.362 2.606-0.008 0.016-0.008 0.031-0.005 0.043zM8.699 8.224c-0.231 0.146-0.469 0.283-0.714 0.411 0.27-0.933 0.124-1.927-0.385-2.769-0.067-0.11-0.238-0.019-0.177 0.095 0.466 0.862 0.58 1.829 0.367 2.774-0.461 0.228-0.941 0.423-1.435 0.575 0.556-0.804 0.699-1.848 0.396-2.778 0.621-0.654 1.203-1.342 1.831-1.985-0.001 0.008-0.001 0.016 0.001 0.024 0.153 0.636 0.389 1.216 0.435 1.879 0.040 0.553-0.011 1.096-0.111 1.636-0.069 0.047-0.139 0.093-0.21 0.137zM9.124 7.938c0.27-1.106 0.217-2.503-0.392-3.423-0.019-0.029-0.050-0.041-0.079-0.038 0.129-0.131 0.262-0.26 0.394-0.387-0.004 0.018-0.003 0.037 0.006 0.054 0.301 0.556 0.548 1.112 0.653 1.739 0.095 0.57 0.004 1.082-0.034 1.634-0.178 0.147-0.361 0.286-0.548 0.42zM11.582 5.423c-0.167 0.247-0.347 0.486-0.535 0.717 0.094-1.030-0.204-2.056-0.838-2.896-0.074-0.097-0.207 0.032-0.137 0.129 0.638 0.875 0.903 1.934 0.783 2.996-0.292 0.335-0.605 0.65-0.937 0.942 0.278-1.062-0.122-2.456-0.737-3.256-0.018-0.024-0.043-0.029-0.068-0.024 0.315-0.292 0.643-0.568 0.995-0.82 0.287-0.205 0.579-0.389 0.877-0.556 0.315 0.912 0.514 1.811 0.598 2.768zM11.716 5.217c0.013-0.912-0.171-1.84-0.535-2.671 0.222-0.119 0.448-0.227 0.676-0.328 0.361 0.512 0.509 1.059 0.558 1.661-0.185 0.428-0.389 0.844-0.639 1.245-0.018 0.032-0.040 0.061-0.059 0.092zM12.732 3.109c-0.047 0.119-0.095 0.238-0.144 0.356-0.047-0.48-0.235-0.95-0.506-1.344 0.484-0.202 0.982-0.372 1.491-0.519-0.385 0.431-0.624 0.961-0.842 1.507zM12.131 1.799c-0.302-0.308-0.658-0.542-1.058-0.687 0.789-0.062 1.591 0.018 2.372 0.224-0.448 0.122-0.887 0.28-1.314 0.463z"></path>
<path fill="#444444" d="M15.236 0.994c-0.318 0.283-0.615 0.594-0.891 0.924-0.029-0.005-0.059-0.004-0.093 0.007-3.215 1.052-5.237 3.984-5.74 7.234-0.253 1.632-0.196 3.288-0.090 4.928 0.063 0.982 0.132 2.080-0.477 2.922-0.59 0.814-1.847 1.038-2.425 0.156 0.071-0.588 0.761-0.974 1.254-0.505 0.113 0.109 0.302-0.077 0.196-0.194-0.364-0.411-0.986-0.473-1.428-0.125-0.488 0.385-0.496 1.093-0.222 1.605 0.095 0.176 0.209 0.321 0.337 0.442-0.016 0.039-0.014 0.088 0.022 0.121 1.012 0.922 2.629 0.946 3.871 0.552 0.568-0.179 1.095-0.455 1.583-0.791 0.044 0.018 0.105 0.001 0.11-0.057 0.001-0.007 0.001-0.015 0.002-0.021 0.847-0.608 1.569-1.407 2.162-2.242 0.666-0.936 1.189-1.969 1.567-3.056 0.049-0.003 0.094-0.048 0.072-0.111-0.005-0.017-0.012-0.035-0.019-0.051 0.319-0.959 0.522-1.958 0.603-2.966 0.043-0.015 0.073-0.058 0.048-0.113-0.009-0.023-0.022-0.046-0.034-0.069 0.043-0.65 0.036-1.302-0.025-1.949-0.076-0.822-0.245-1.628-0.483-2.418-0.306-1.018-0.67-2.027-0.477-3.103 0.003-0.020 0.003-0.038 0-0.055 0.234-0.308 0.475-0.612 0.723-0.917 0.074-0.089-0.056-0.228-0.147-0.148zM10.979 4.527c0.014-0.001 0.027-0.004 0.041-0.011 0.605-0.294 1.236-0.444 1.9-0.438-0.225 0.427-0.428 0.863-0.607 1.3-0.023 0.052-0.043 0.104-0.064 0.157 0.005-0.040-0.015-0.083-0.061-0.089-0.689-0.089-1.559 0.034-2.195 0.427 0.282-0.489 0.613-0.937 0.985-1.345zM9.747 6.339c0.34-0.18 0.65-0.4 1.022-0.526 0.464-0.157 0.93-0.208 1.417-0.215 0.021-0.001 0.037-0.009 0.049-0.022-0.116 0.294-0.219 0.59-0.31 0.888-0.018-0.028-0.047-0.048-0.087-0.049-0.877-0.026-1.737 0.205-2.434 0.719 0.1-0.27 0.216-0.535 0.343-0.794zM9.249 7.593c0.758-0.598 1.596-0.936 2.585-0.92 0.010 0 0.019-0.001 0.029-0.004-0.097 0.336-0.182 0.674-0.254 1.014-0.006-0.002-0.010-0.005-0.016-0.005-1.013-0.1-1.943 0.305-2.627 1.025 0.074-0.375 0.168-0.745 0.283-1.11zM11.317 9.122c-0.91 0.080-1.767 0.389-2.542 0.862 0.031-0.305 0.071-0.609 0.122-0.911 0.025-0.003 0.050-0.014 0.071-0.038 0.663-0.781 1.592-1.132 2.599-1.135-0.081 0.407-0.148 0.817-0.203 1.23-0.013-0.005-0.029-0.010-0.048-0.008zM8.748 10.29c0.002-0.001 0.003-0.001 0.005-0.002 0.809-0.499 1.654-0.802 2.585-0.979 0.001 0 0.003-0 0.004-0.001-0.021 0.172-0.040 0.344-0.058 0.517-0.014-0.039-0.048-0.069-0.104-0.064-0.916 0.094-1.749 0.458-2.465 1.025 0.009-0.165 0.019-0.329 0.033-0.495zM8.692 12.013c-0.003-0.307 0.001-0.614 0.010-0.922 0.014-0.005 0.028-0.011 0.041-0.022 0.727-0.592 1.541-0.937 2.46-1.104 0.033-0.005 0.055-0.022 0.070-0.044-0.038 0.39-0.068 0.784-0.095 1.179-0.004 0.065-0.009 0.132-0.014 0.198-0.89-0.005-1.851 0.324-2.464 0.987-0.004-0.093-0.007-0.184-0.008-0.272zM8.707 12.445c0.028 0.013 0.063 0.015 0.093-0.005 0.763-0.509 1.446-0.837 2.353-0.94-0.030 0.469-0.064 0.95-0.113 1.433-0.77-0.039-1.637 0.156-2.245 0.661-0.031-0.393-0.068-0.779-0.088-1.148zM10.797 14.355c-0.717 0.037-1.371 0.312-1.945 0.724 0.013-0.403-0.007-0.814-0.036-1.222 0.715-0.405 1.354-0.684 2.199-0.691-0.045 0.4-0.104 0.799-0.186 1.192-0.010-0.002-0.021-0.005-0.032-0.004zM8.787 15.791c0.022-0.134 0.036-0.273 0.047-0.412 0.589-0.431 1.237-0.656 1.948-0.789-0.037 0.16-0.078 0.32-0.123 0.476-0.685 0.051-1.318 0.32-1.872 0.725zM8.754 15.975c0.035 0.034 0.088 0.048 0.137 0.011 0.521-0.399 1.087-0.622 1.715-0.749-0.213 0.673-0.514 1.307-0.957 1.864-0.175 0.221-0.38 0.429-0.605 0.613 0.012-0.027 0.013-0.058-0.008-0.090-0.182-0.269-0.472-0.423-0.778-0.437 0.255-0.365 0.409-0.776 0.497-1.212zM6.759 18.45c-0.469-0.070-0.933-0.318-1.139-0.738 0.231 0.218 0.544 0.353 0.89 0.388 0.134 0.015 0.267 0.009 0.395-0.009 0.108 0.036 0.22 0.061 0.323 0.106 0.132 0.059 0.251 0.137 0.36 0.231-0.27 0.052-0.549 0.063-0.828 0.021zM7.774 18.385c-0.002-0.002-0.002-0.005-0.004-0.007-0.123-0.135-0.302-0.289-0.498-0.385 0.311-0.121 0.588-0.331 0.812-0.586 0.302-0.041 0.617 0.086 0.804 0.327 0.024 0.032 0.055 0.039 0.084 0.034-0.359 0.279-0.767 0.5-1.198 0.616zM7.106 18.848c0.35-0.017 0.71-0.098 1.050-0.222-0.007 0.015-0.014 0.031-0.021 0.046-0.044 0.095-0.083 0.196-0.124 0.294-0.31-0.005-0.612-0.048-0.906-0.118zM8.635 18.932c-0.135 0.018-0.268 0.029-0.399 0.034 0.028-0.065 0.052-0.13 0.076-0.183 0.041-0.088 0.090-0.179 0.132-0.273 0.34-0.151 0.647-0.342 0.889-0.546 0.152-0.13 0.292-0.268 0.423-0.413 0.042 0.168 0.092 0.332 0.096 0.51 0.005 0.198-0.037 0.393-0.104 0.577-0.356 0.141-0.728 0.242-1.112 0.293zM9.996 18.534c0.134-0.384 0.142-0.847-0.091-1.157 0.282-0.345 0.51-0.727 0.697-1.13 0.19 0.562 0.371 1.087 0.453 1.665-0.332 0.24-0.686 0.452-1.059 0.621zM11.473 17.585c-0.072 0.060-0.146 0.12-0.22 0.177-0.020-0.58-0.179-1.172-0.541-1.622-0.014-0.019-0.032-0.027-0.050-0.027 0.254-0.582 0.425-1.206 0.545-1.836 0.651 0.664 1.073 1.442 1.227 2.359-0.299 0.341-0.619 0.657-0.962 0.948zM13.079 15.82c-0.138 0.194-0.282 0.387-0.433 0.571-0.143-0.945-0.62-1.81-1.386-2.406 0.050-0.301 0.091-0.602 0.122-0.899 0.005-0.043 0.009-0.087 0.013-0.13 0.882 0.73 1.433 1.676 1.656 2.819 0.006 0.019 0.015 0.035 0.029 0.044zM14.623 12.813c-0.112 0.32-0.239 0.638-0.379 0.951-0.456-1.117-1.364-1.973-2.51-2.4-0.149-0.056-0.247 0.164-0.098 0.229 1.118 0.478 1.975 1.334 2.497 2.419-0.273 0.577-0.589 1.139-0.953 1.666-0.079-1.212-0.745-2.339-1.757-3.010 0.099-1.117 0.135-2.236 0.251-3.346 0.006 0.008 0.012 0.015 0.021 0.023 0.64 0.5 1.316 0.883 1.874 1.494 0.464 0.507 0.834 1.077 1.154 1.68-0.032 0.099-0.064 0.197-0.098 0.295zM14.816 12.207c-0.59-1.286-1.719-2.606-3.023-3.033-0.041-0.014-0.080 0-0.106 0.025 0.025-0.227 0.054-0.454 0.087-0.681 0.008 0.020 0.023 0.038 0.047 0.049 0.722 0.309 1.391 0.661 1.977 1.19 0.533 0.48 0.839 1.052 1.228 1.617-0.060 0.28-0.13 0.557-0.21 0.833zM15.271 7.86c0.027 0.369 0.038 0.741 0.032 1.112-0.703-1.077-1.785-1.847-3.051-2.175-0.146-0.038-0.177 0.192-0.035 0.231 1.296 0.36 2.372 1.188 3.074 2.315-0.026 0.551-0.087 1.099-0.186 1.641-0.55-1.249-2.014-2.299-3.231-2.604-0.037-0.009-0.065 0.006-0.085 0.029 0.080-0.525 0.186-1.047 0.336-1.565 0.121-0.422 0.264-0.827 0.426-1.219 1.011 0.645 1.898 1.369 2.719 2.235zM15.243 7.556c-0.691-0.898-1.586-1.66-2.583-2.188 0.124-0.287 0.262-0.567 0.406-0.84 0.747 0.221 1.312 0.639 1.826 1.189 0.149 0.56 0.271 1.123 0.337 1.705 0.005 0.045 0.009 0.090 0.014 0.135zM14.606 4.718c0.047 0.153 0.091 0.305 0.135 0.457-0.415-0.431-0.962-0.745-1.529-0.919 0.316-0.571 0.67-1.12 1.053-1.655-0.042 0.717 0.133 1.419 0.342 2.117zM13.011 3.906c-0.532-0.066-1.059-0.020-1.56 0.147 0.721-0.67 1.564-1.209 2.484-1.612-0.342 0.464-0.65 0.957-0.923 1.464z"></path>
</svg>
