<?xml version="1.0" encoding="utf-8"?>
<!-- Generated by IcoMoon.io -->
<!DOCTYPE svg PUBLIC "-//W3C//DTD SVG 1.1//EN" "http://www.w3.org/Graphics/SVG/1.1/DTD/svg11.dtd">
<svg version="1.1" xmlns="http://www.w3.org/2000/svg" xmlns:xlink="http://www.w3.org/1999/xlink" width="20" height="20" viewBox="0 0 20 20">
<path fill="#444444" d="M19.451 16.799l-2.433-2.433c-0.709 1.041-1.61 1.942-2.651 2.651l2.433 2.433c0.732 0.732 1.92 0.732 2.651 0 0.732-0.732 0.732-1.919 0-2.651z"></path>
<path fill="#444444" d="M17.5 8.75c0-4.833-3.917-8.75-8.75-8.75s-8.75 3.917-8.75 8.75c0 4.833 3.917 8.75 8.75 8.75s8.75-3.917 8.75-8.75zM8.75 15.625c-3.791 0-6.875-3.085-6.875-6.875s3.084-6.875 6.875-6.875c3.79 0 6.875 3.084 6.875 6.875s-3.085 6.875-6.875 6.875z"></path>
</svg>
