<?xml version="1.0" encoding="utf-8"?>
<!-- Generated by IcoMoon.io -->
<!DOCTYPE svg PUBLIC "-//W3C//DTD SVG 1.1//EN" "http://www.w3.org/Graphics/SVG/1.1/DTD/svg11.dtd">
<svg version="1.1" xmlns="http://www.w3.org/2000/svg" xmlns:xlink="http://www.w3.org/1999/xlink" width="24" height="24" viewBox="0 0 24 24">
<path fill="#444" d="M23.341 20.159l-2.919-2.919c-0.851 1.249-1.932 2.331-3.182 3.182l2.919 2.919c0.879 0.879 2.304 0.879 3.182 0 0.879-0.879 0.879-2.303 0-3.182z"></path>
<path fill="#444" d="M21 10.5c0-5.799-4.701-10.5-10.5-10.5s-10.5 4.701-10.5 10.5c0 5.799 4.701 10.5 10.5 10.5s10.5-4.701 10.5-10.5zM10.5 18.75c-4.549 0-8.25-3.702-8.25-8.25s3.701-8.25 8.25-8.25c4.548 0 8.25 3.701 8.25 8.25s-3.702 8.25-8.25 8.25z"></path>
</svg>
