<?xml version="1.0" encoding="utf-8"?>
<!-- Generated by IcoMoon.io -->
<!DOCTYPE svg PUBLIC "-//W3C//DTD SVG 1.1//EN" "http://www.w3.org/Graphics/SVG/1.1/DTD/svg11.dtd">
<svg version="1.1" xmlns="http://www.w3.org/2000/svg" xmlns:xlink="http://www.w3.org/1999/xlink" width="24" height="24" viewBox="0 0 24 24">
<path fill="#444" d="M15.6 20.4c0 1.325 1.073 2.4 2.4 2.4 1.325 0 2.4-1.075 2.4-2.4 0-1.327-1.075-2.4-2.4-2.4-1.327 0-2.4 1.073-2.4 2.4zM3.6 20.4c0 1.325 1.074 2.4 2.4 2.4 1.324 0 2.4-1.075 2.4-2.4 0-1.327-1.076-2.4-2.4-2.4-1.326 0-2.4 1.073-2.4 2.4zM7.856 14.606l13.282-3.794c0.253-0.073 0.462-0.347 0.462-0.612v-6.6h-16.8v-1.92c0-0.264-0.217-0.48-0.479-0.48h-3.842c-0.263 0-0.479 0.216-0.479 0.48v1.92h2.4l2.292 10.748 0.108 1.132v1.979c0 0.263 0.216 0.48 0.48 0.48h15.84c0.264 0 0.48-0.218 0.48-0.48v-1.859h-13.498c-1.38 0-1.409-0.661-0.246-0.994z"></path>
</svg>
